<?xml version="1.0" encoding="UTF-8"?>
<svg xmlns="http://www.w3.org/2000/svg" xmlns:xlink="http://www.w3.org/1999/xlink" width="595pt" height="842pt" viewBox="0 0 595 842" version="1.1">
<g id="surface1">
<path style="fill:none;stroke-width:0.749409;stroke-linecap:round;stroke-linejoin:round;stroke:rgb(0%,0%,0%);stroke-opacity:1;stroke-miterlimit:10;" d="M 129.160156 93.710938 L 119.238281 110.894531 "/>
<path style="fill:none;stroke-width:0.749409;stroke-linecap:round;stroke-linejoin:round;stroke:rgb(0%,0%,0%);stroke-opacity:1;stroke-miterlimit:10;" d="M 293.035156 247.257812 L 310.238281 257.175781 "/>
<path style="fill:none;stroke-width:0.749409;stroke-linecap:round;stroke-linejoin:round;stroke:rgb(0%,0%,0%);stroke-opacity:1;stroke-miterlimit:10;" d="M 379.15625 217.378906 L 389.078125 200.195312 "/>
<path style="fill:none;stroke-width:0.749409;stroke-linecap:round;stroke-linejoin:round;stroke:rgb(0%,0%,0%);stroke-opacity:1;stroke-miterlimit:10;" d="M 193.34375 223.929688 L 213.1875 223.929688 "/>
<path style="fill:none;stroke-width:0.749409;stroke-linecap:round;stroke-linejoin:round;stroke:rgb(0%,0%,0%);stroke-opacity:1;stroke-miterlimit:10;" d="M 310.210938 197.367188 L 292.890625 187.332031 "/>
<path style="fill:none;stroke-width:0.749409;stroke-linecap:round;stroke-linejoin:round;stroke:rgb(0%,0%,0%);stroke-opacity:1;stroke-miterlimit:10;" d="M 141.566406 213.945312 L 124.402344 224.074219 "/>
<path style="fill:none;stroke-width:0.749409;stroke-linecap:butt;stroke-linejoin:round;stroke:rgb(0%,0%,0%);stroke-opacity:1;stroke-miterlimit:10;" d="M 163.25 241.207031 L 176.175781 248.675781 "/>
<path style="fill:none;stroke-width:0.749409;stroke-linecap:round;stroke-linejoin:round;stroke:rgb(0%,0%,0%);stroke-opacity:1;stroke-miterlimit:10;" d="M 158.847656 243.855469 L 176.078125 253.8125 "/>
<path style="fill:none;stroke-width:0.749409;stroke-linecap:butt;stroke-linejoin:round;stroke:rgb(0%,0%,0%);stroke-opacity:1;stroke-miterlimit:10;" d="M 331.875 244.578125 L 344.800781 252.039062 "/>
<path style="fill:none;stroke-width:0.749409;stroke-linecap:round;stroke-linejoin:round;stroke:rgb(0%,0%,0%);stroke-opacity:1;stroke-miterlimit:10;" d="M 327.472656 247.226562 L 344.707031 257.175781 "/>
<path style="fill:none;stroke-width:0.749409;stroke-linecap:butt;stroke-linejoin:round;stroke:rgb(0%,0%,0%);stroke-opacity:1;stroke-miterlimit:10;" d="M 124.503906 249.019531 L 111.617188 256.464844 "/>
<path style="fill:none;stroke-width:0.749409;stroke-linecap:round;stroke-linejoin:round;stroke:rgb(0%,0%,0%);stroke-opacity:1;stroke-miterlimit:10;" d="M 124.402344 243.886719 L 107.222656 253.8125 "/>
<path style="fill:none;stroke-width:0.749409;stroke-linecap:butt;stroke-linejoin:round;stroke:rgb(0%,0%,0%);stroke-opacity:1;stroke-miterlimit:10;" d="M 340.304688 274.398438 L 327.378906 281.859375 "/>
<path style="fill:none;stroke-width:0.749409;stroke-linecap:round;stroke-linejoin:round;stroke:rgb(0%,0%,0%);stroke-opacity:1;stroke-miterlimit:10;" d="M 344.707031 277.046875 L 327.472656 287 "/>
<path style="fill:none;stroke-width:0.749409;stroke-linecap:round;stroke-linejoin:round;stroke:rgb(0%,0%,0%);stroke-opacity:1;stroke-miterlimit:10;" d="M 158.847656 243.855469 L 158.847656 223.929688 "/>
<path style="fill:none;stroke-width:0.749409;stroke-linecap:round;stroke-linejoin:round;stroke:rgb(0%,0%,0%);stroke-opacity:1;stroke-miterlimit:10;" d="M 275.828125 217.519531 L 275.601562 197.339844 "/>
<path style="fill:none;stroke-width:0.749409;stroke-linecap:round;stroke-linejoin:round;stroke:rgb(0%,0%,0%);stroke-opacity:1;stroke-miterlimit:10;" d="M 176.113281 213.976562 L 193.34375 223.929688 "/>
<path style="fill:none;stroke-width:0.749409;stroke-linecap:round;stroke-linejoin:round;stroke:rgb(0%,0%,0%);stroke-opacity:1;stroke-miterlimit:10;" d="M 39.859375 204.796875 L 57.042969 214.71875 "/>
<path style="fill:none;stroke-width:0.749409;stroke-linecap:round;stroke-linejoin:round;stroke:rgb(0%,0%,0%);stroke-opacity:1;stroke-miterlimit:10;" d="M 293.035156 227.441406 L 293.035156 247.257812 "/>
<path style="fill:none;stroke-width:0.749409;stroke-linecap:round;stroke-linejoin:round;stroke:rgb(0%,0%,0%);stroke-opacity:1;stroke-miterlimit:10;" d="M 255.488281 120.816406 L 275.332031 120.816406 "/>
<path style="fill:none;stroke-width:0.749409;stroke-linecap:round;stroke-linejoin:round;stroke:rgb(0%,0%,0%);stroke-opacity:1;stroke-miterlimit:10;" d="M 213.140625 56.683594 L 193.292969 56.683594 "/>
<path style="fill:none;stroke-width:0.749409;stroke-linecap:round;stroke-linejoin:round;stroke:rgb(0%,0%,0%);stroke-opacity:1;stroke-miterlimit:10;" d="M 141.617188 253.8125 L 158.847656 243.855469 "/>
<path style="fill:none;stroke-width:0.749409;stroke-linecap:round;stroke-linejoin:round;stroke:rgb(0%,0%,0%);stroke-opacity:1;stroke-miterlimit:10;" d="M 232.984375 56.683594 L 213.140625 56.683594 "/>
<path style="fill:none;stroke-width:0.749409;stroke-linecap:butt;stroke-linejoin:round;stroke:rgb(0%,0%,0%);stroke-opacity:1;stroke-miterlimit:10;" d="M 327.382812 192.558594 L 340.328125 200.039062 "/>
<path style="fill:none;stroke-width:0.749409;stroke-linecap:round;stroke-linejoin:round;stroke:rgb(0%,0%,0%);stroke-opacity:1;stroke-miterlimit:10;" d="M 327.472656 187.417969 L 344.738281 197.394531 "/>
<path style="fill:none;stroke-width:0.749409;stroke-linecap:round;stroke-linejoin:round;stroke:rgb(0%,0%,0%);stroke-opacity:1;stroke-miterlimit:10;" d="M 39.859375 184.953125 L 39.859375 204.796875 "/>
<path style="fill:none;stroke-width:0.749409;stroke-linecap:round;stroke-linejoin:round;stroke:rgb(0%,0%,0%);stroke-opacity:1;stroke-miterlimit:10;" d="M 310.210938 197.367188 L 327.472656 187.417969 "/>
<path style="fill:none;stroke-width:0.749409;stroke-linecap:round;stroke-linejoin:round;stroke:rgb(0%,0%,0%);stroke-opacity:1;stroke-miterlimit:10;" d="M 39.859375 145.261719 L 59.703125 145.261719 "/>
<path style="fill:none;stroke-width:0.749409;stroke-linecap:butt;stroke-linejoin:round;stroke:rgb(0%,0%,0%);stroke-opacity:1;stroke-miterlimit:10;" d="M 357.476562 229.792969 L 357.476562 244.738281 "/>
<path style="fill:none;stroke-width:0.749409;stroke-linecap:round;stroke-linejoin:round;stroke:rgb(0%,0%,0%);stroke-opacity:1;stroke-miterlimit:10;" d="M 361.972656 227.300781 L 361.972656 247.226562 "/>
<path style="fill:none;stroke-width:0.749409;stroke-linecap:round;stroke-linejoin:round;stroke:rgb(0%,0%,0%);stroke-opacity:1;stroke-miterlimit:10;" d="M 90.039062 243.886719 L 107.222656 253.8125 "/>
<path style="fill:none;stroke-width:0.749409;stroke-linecap:round;stroke-linejoin:round;stroke:rgb(0%,0%,0%);stroke-opacity:1;stroke-miterlimit:10;" d="M 344.738281 217.351562 L 344.738281 197.394531 "/>
<path style="fill:none;stroke-width:0.749409;stroke-linecap:butt;stroke-linejoin:round;stroke:rgb(0%,0%,0%);stroke-opacity:1;stroke-miterlimit:10;" d="M 293.152344 281.832031 L 280.222656 274.390625 "/>
<path style="fill:none;stroke-width:0.749409;stroke-linecap:round;stroke-linejoin:round;stroke:rgb(0%,0%,0%);stroke-opacity:1;stroke-miterlimit:10;" d="M 293.0625 286.96875 L 275.828125 277.046875 "/>
<path style="fill:none;stroke-width:0.749409;stroke-linecap:round;stroke-linejoin:round;stroke:rgb(0%,0%,0%);stroke-opacity:1;stroke-miterlimit:10;" d="M 57.042969 214.71875 L 74.230469 224.640625 "/>
<path style="fill:none;stroke-width:0.749409;stroke-linecap:round;stroke-linejoin:round;stroke:rgb(0%,0%,0%);stroke-opacity:1;stroke-miterlimit:10;" d="M 176.078125 253.8125 L 176.078125 273.683594 "/>
<path style="fill:none;stroke-width:0.749409;stroke-linecap:round;stroke-linejoin:round;stroke:rgb(0%,0%,0%);stroke-opacity:1;stroke-miterlimit:10;" d="M 193.292969 56.683594 L 173.449219 56.683594 "/>
<path style="fill:none;stroke-width:0.749409;stroke-linecap:round;stroke-linejoin:round;stroke:rgb(0%,0%,0%);stroke-opacity:1;stroke-miterlimit:10;" d="M 59.703125 110.894531 L 49.78125 128.078125 "/>
<path style="fill:none;stroke-width:0.749409;stroke-linecap:round;stroke-linejoin:round;stroke:rgb(0%,0%,0%);stroke-opacity:1;stroke-miterlimit:10;" d="M 107.222656 214.148438 L 106.972656 193.957031 "/>
<path style="fill:none;stroke-width:0.749409;stroke-linecap:round;stroke-linejoin:round;stroke:rgb(0%,0%,0%);stroke-opacity:1;stroke-miterlimit:10;" d="M 327.472656 227.300781 L 310.183594 217.324219 "/>
<path style="fill:none;stroke-width:0.749409;stroke-linecap:round;stroke-linejoin:round;stroke:rgb(0%,0%,0%);stroke-opacity:1;stroke-miterlimit:10;" d="M 272.671875 56.683594 L 252.828125 56.683594 "/>
<path style="fill:none;stroke-width:0.749409;stroke-linecap:round;stroke-linejoin:round;stroke:rgb(0%,0%,0%);stroke-opacity:1;stroke-miterlimit:10;" d="M 136.421875 120.816406 L 156.265625 120.816406 "/>
<path style="fill:none;stroke-width:0.749409;stroke-linecap:round;stroke-linejoin:round;stroke:rgb(0%,0%,0%);stroke-opacity:1;stroke-miterlimit:10;" d="M 119.238281 110.894531 L 136.421875 120.816406 "/>
<path style="fill:none;stroke-width:0.749409;stroke-linecap:round;stroke-linejoin:round;stroke:rgb(0%,0%,0%);stroke-opacity:1;stroke-miterlimit:10;" d="M 389.078125 100.972656 L 379.15625 83.789062 "/>
<path style="fill:none;stroke-width:0.749409;stroke-linecap:butt;stroke-linejoin:round;stroke:rgb(0%,0%,0%);stroke-opacity:1;stroke-miterlimit:10;" d="M 59.605469 140.128906 L 72.492188 132.6875 "/>
<path style="fill:none;stroke-width:0.749409;stroke-linecap:round;stroke-linejoin:round;stroke:rgb(0%,0%,0%);stroke-opacity:1;stroke-miterlimit:10;" d="M 59.703125 145.261719 L 76.890625 135.339844 "/>
<path style="fill:none;stroke-width:0.749409;stroke-linecap:butt;stroke-linejoin:round;stroke:rgb(0%,0%,0%);stroke-opacity:1;stroke-miterlimit:10;" d="M 305.691406 214.820312 L 305.710938 199.855469 "/>
<path style="fill:none;stroke-width:0.749409;stroke-linecap:round;stroke-linejoin:round;stroke:rgb(0%,0%,0%);stroke-opacity:1;stroke-miterlimit:10;" d="M 310.183594 217.324219 L 310.210938 197.367188 "/>
<path style="fill:none;stroke-width:0.749409;stroke-linecap:round;stroke-linejoin:round;stroke:rgb(0%,0%,0%);stroke-opacity:1;stroke-miterlimit:10;" d="M 369.234375 66.605469 L 352.050781 56.683594 "/>
<path style="fill:none;stroke-width:0.749409;stroke-linecap:round;stroke-linejoin:round;stroke:rgb(0%,0%,0%);stroke-opacity:1;stroke-miterlimit:10;" d="M 389.078125 180.351562 L 389.078125 160.503906 "/>
<path style="fill:none;stroke-width:0.749409;stroke-linecap:round;stroke-linejoin:round;stroke:rgb(0%,0%,0%);stroke-opacity:1;stroke-miterlimit:10;" d="M 379.15625 83.789062 L 369.234375 66.605469 "/>
<path style="fill:none;stroke-width:0.749409;stroke-linecap:round;stroke-linejoin:round;stroke:rgb(0%,0%,0%);stroke-opacity:1;stroke-miterlimit:10;" d="M 332.207031 56.683594 L 312.359375 56.683594 "/>
<path style="fill:none;stroke-width:0.749409;stroke-linecap:butt;stroke-linejoin:round;stroke:rgb(0%,0%,0%);stroke-opacity:1;stroke-miterlimit:10;" d="M 137.074219 211.445312 L 137.085938 196.476562 "/>
<path style="fill:none;stroke-width:0.749409;stroke-linecap:round;stroke-linejoin:round;stroke:rgb(0%,0%,0%);stroke-opacity:1;stroke-miterlimit:10;" d="M 141.566406 213.945312 L 141.585938 193.988281 "/>
<path style="fill:none;stroke-width:0.749409;stroke-linecap:round;stroke-linejoin:round;stroke:rgb(0%,0%,0%);stroke-opacity:1;stroke-miterlimit:10;" d="M 235.644531 120.816406 L 255.488281 120.816406 "/>
<path style="fill:none;stroke-width:0.749409;stroke-linecap:butt;stroke-linejoin:round;stroke:rgb(0%,0%,0%);stroke-opacity:1;stroke-miterlimit:10;" d="M 314.734375 259.660156 L 314.734375 274.566406 "/>
<path style="fill:none;stroke-width:0.749409;stroke-linecap:round;stroke-linejoin:round;stroke:rgb(0%,0%,0%);stroke-opacity:1;stroke-miterlimit:10;" d="M 310.238281 257.175781 L 310.238281 277.046875 "/>
<path style="fill:none;stroke-width:0.749409;stroke-linecap:round;stroke-linejoin:round;stroke:rgb(0%,0%,0%);stroke-opacity:1;stroke-miterlimit:10;" d="M 352.050781 56.683594 L 332.207031 56.683594 "/>
<path style="fill:none;stroke-width:0.749409;stroke-linecap:round;stroke-linejoin:round;stroke:rgb(0%,0%,0%);stroke-opacity:1;stroke-miterlimit:10;" d="M 158.847656 223.929688 L 141.566406 213.945312 "/>
<path style="fill:none;stroke-width:0.749409;stroke-linecap:round;stroke-linejoin:round;stroke:rgb(0%,0%,0%);stroke-opacity:1;stroke-miterlimit:10;" d="M 141.585938 193.988281 L 158.851562 184.035156 "/>
<path style="fill:none;stroke-width:0.749409;stroke-linecap:round;stroke-linejoin:round;stroke:rgb(0%,0%,0%);stroke-opacity:1;stroke-miterlimit:10;" d="M 124.402344 243.886719 L 141.617188 253.8125 "/>
<path style="fill:none;stroke-width:0.749409;stroke-linecap:butt;stroke-linejoin:round;stroke:rgb(0%,0%,0%);stroke-opacity:1;stroke-miterlimit:10;" d="M 146.113281 256.296875 L 146.113281 271.199219 "/>
<path style="fill:none;stroke-width:0.749409;stroke-linecap:round;stroke-linejoin:round;stroke:rgb(0%,0%,0%);stroke-opacity:1;stroke-miterlimit:10;" d="M 141.617188 253.8125 L 141.617188 273.683594 "/>
<path style="fill:none;stroke-width:0.749409;stroke-linecap:round;stroke-linejoin:round;stroke:rgb(0%,0%,0%);stroke-opacity:1;stroke-miterlimit:10;" d="M 141.617188 273.683594 L 124.4375 283.609375 "/>
<path style="fill:none;stroke-width:0.749409;stroke-linecap:round;stroke-linejoin:round;stroke:rgb(0%,0%,0%);stroke-opacity:1;stroke-miterlimit:10;" d="M 107.222656 253.8125 L 107.222656 273.683594 "/>
<path style="fill:none;stroke-width:0.749409;stroke-linecap:round;stroke-linejoin:round;stroke:rgb(0%,0%,0%);stroke-opacity:1;stroke-miterlimit:10;" d="M 310.238281 257.175781 L 327.472656 247.226562 "/>
<path style="fill:none;stroke-width:0.749409;stroke-linecap:round;stroke-linejoin:round;stroke:rgb(0%,0%,0%);stroke-opacity:1;stroke-miterlimit:10;" d="M 389.078125 200.195312 L 389.078125 180.351562 "/>
<path style="fill:none;stroke-width:0.749409;stroke-linecap:round;stroke-linejoin:round;stroke:rgb(0%,0%,0%);stroke-opacity:1;stroke-miterlimit:10;" d="M 39.859375 165.105469 L 39.859375 184.953125 "/>
<path style="fill:none;stroke-width:0.749409;stroke-linecap:butt;stroke-linejoin:round;stroke:rgb(0%,0%,0%);stroke-opacity:1;stroke-miterlimit:10;" d="M 124.53125 278.472656 L 111.617188 271.03125 "/>
<path style="fill:none;stroke-width:0.749409;stroke-linecap:round;stroke-linejoin:round;stroke:rgb(0%,0%,0%);stroke-opacity:1;stroke-miterlimit:10;" d="M 124.4375 283.609375 L 107.222656 273.683594 "/>
<path style="fill:none;stroke-width:0.749409;stroke-linecap:round;stroke-linejoin:round;stroke:rgb(0%,0%,0%);stroke-opacity:1;stroke-miterlimit:10;" d="M 233.03125 223.929688 L 258.648438 227.441406 "/>
<path style="fill:none;stroke-width:0.749409;stroke-linecap:round;stroke-linejoin:round;stroke:rgb(0%,0%,0%);stroke-opacity:1;stroke-miterlimit:10;" d="M 344.707031 257.175781 L 344.707031 277.046875 "/>
<path style="fill:none;stroke-width:0.749409;stroke-linecap:butt;stroke-linejoin:round;stroke:rgb(0%,0%,0%);stroke-opacity:1;stroke-miterlimit:10;" d="M 158.761719 218.789062 L 171.707031 211.324219 "/>
<path style="fill:none;stroke-width:0.749409;stroke-linecap:round;stroke-linejoin:round;stroke:rgb(0%,0%,0%);stroke-opacity:1;stroke-miterlimit:10;" d="M 158.847656 223.929688 L 176.113281 213.976562 "/>
<path style="fill:none;stroke-width:0.749409;stroke-linecap:round;stroke-linejoin:round;stroke:rgb(0%,0%,0%);stroke-opacity:1;stroke-miterlimit:10;" d="M 389.078125 160.503906 L 389.078125 140.660156 "/>
<path style="fill:none;stroke-width:0.749409;stroke-linecap:round;stroke-linejoin:round;stroke:rgb(0%,0%,0%);stroke-opacity:1;stroke-miterlimit:10;" d="M 176.109375 120.816406 L 195.957031 120.816406 "/>
<path style="fill:none;stroke-width:0.749409;stroke-linecap:round;stroke-linejoin:round;stroke:rgb(0%,0%,0%);stroke-opacity:1;stroke-miterlimit:10;" d="M 389.078125 140.660156 L 389.078125 120.816406 "/>
<path style="fill:none;stroke-width:0.749409;stroke-linecap:round;stroke-linejoin:round;stroke:rgb(0%,0%,0%);stroke-opacity:1;stroke-miterlimit:10;" d="M 156.265625 120.816406 L 176.109375 120.816406 "/>
<path style="fill:none;stroke-width:0.749409;stroke-linecap:round;stroke-linejoin:round;stroke:rgb(0%,0%,0%);stroke-opacity:1;stroke-miterlimit:10;" d="M 235.644531 81.128906 L 235.644531 61.285156 "/>
<path style="fill:none;stroke-width:0.749409;stroke-linecap:round;stroke-linejoin:round;stroke:rgb(0%,0%,0%);stroke-opacity:1;stroke-miterlimit:10;" d="M 310.238281 277.046875 L 327.472656 287 "/>
<path style="fill:none;stroke-width:0.749409;stroke-linecap:round;stroke-linejoin:round;stroke:rgb(0%,0%,0%);stroke-opacity:1;stroke-miterlimit:10;" d="M 312.359375 56.683594 L 292.515625 56.683594 "/>
<path style="fill:none;stroke-width:0.749409;stroke-linecap:round;stroke-linejoin:round;stroke:rgb(0%,0%,0%);stroke-opacity:1;stroke-miterlimit:10;" d="M 310.238281 277.046875 L 293.0625 286.96875 "/>
<path style="fill:none;stroke-width:0.749409;stroke-linecap:round;stroke-linejoin:round;stroke:rgb(0%,0%,0%);stroke-opacity:1;stroke-miterlimit:10;" d="M 139.082031 76.527344 L 129.160156 93.710938 "/>
<path style="fill:none;stroke-width:0.749409;stroke-linecap:round;stroke-linejoin:round;stroke:rgb(0%,0%,0%);stroke-opacity:1;stroke-miterlimit:10;" d="M 213.1875 223.929688 L 233.03125 223.929688 "/>
<path style="fill:none;stroke-width:0.749409;stroke-linecap:round;stroke-linejoin:round;stroke:rgb(0%,0%,0%);stroke-opacity:1;stroke-miterlimit:10;" d="M 195.957031 120.816406 L 215.800781 120.816406 "/>
<path style="fill:none;stroke-width:0.749409;stroke-linecap:butt;stroke-linejoin:round;stroke:rgb(0%,0%,0%);stroke-opacity:1;stroke-miterlimit:10;" d="M 111.617188 211.496094 L 124.503906 218.9375 "/>
<path style="fill:none;stroke-width:0.749409;stroke-linecap:round;stroke-linejoin:round;stroke:rgb(0%,0%,0%);stroke-opacity:1;stroke-miterlimit:10;" d="M 107.222656 214.148438 L 124.402344 224.074219 "/>
<path style="fill:none;stroke-width:0.749409;stroke-linecap:round;stroke-linejoin:round;stroke:rgb(0%,0%,0%);stroke-opacity:1;stroke-miterlimit:10;" d="M 76.890625 135.339844 L 76.890625 115.496094 "/>
<path style="fill:none;stroke-width:0.749409;stroke-linecap:butt;stroke-linejoin:round;stroke:rgb(0%,0%,0%);stroke-opacity:1;stroke-miterlimit:10;" d="M 94.535156 226.550781 L 94.535156 241.410156 "/>
<path style="fill:none;stroke-width:0.749409;stroke-linecap:round;stroke-linejoin:round;stroke:rgb(0%,0%,0%);stroke-opacity:1;stroke-miterlimit:10;" d="M 90.039062 224.074219 L 90.039062 243.886719 "/>
<path style="fill:none;stroke-width:0.749409;stroke-linecap:butt;stroke-linejoin:round;stroke:rgb(0%,0%,0%);stroke-opacity:1;stroke-miterlimit:10;" d="M 280.015625 199.980469 L 292.980469 192.472656 "/>
<path style="fill:none;stroke-width:0.749409;stroke-linecap:round;stroke-linejoin:round;stroke:rgb(0%,0%,0%);stroke-opacity:1;stroke-miterlimit:10;" d="M 275.601562 197.339844 L 292.890625 187.332031 "/>
<path style="fill:none;stroke-width:0.749409;stroke-linecap:round;stroke-linejoin:round;stroke:rgb(0%,0%,0%);stroke-opacity:1;stroke-miterlimit:10;" d="M 90.039062 224.074219 L 107.222656 214.148438 "/>
<path style="fill:none;stroke-width:0.749409;stroke-linecap:round;stroke-linejoin:round;stroke:rgb(0%,0%,0%);stroke-opacity:1;stroke-miterlimit:10;" d="M 124.402344 224.074219 L 124.402344 243.886719 "/>
<path style="fill:none;stroke-width:0.749409;stroke-linecap:butt;stroke-linejoin:round;stroke:rgb(0%,0%,0%);stroke-opacity:1;stroke-miterlimit:10;" d="M 327.386719 222.160156 L 340.335938 214.699219 "/>
<path style="fill:none;stroke-width:0.749409;stroke-linecap:round;stroke-linejoin:round;stroke:rgb(0%,0%,0%);stroke-opacity:1;stroke-miterlimit:10;" d="M 327.472656 227.300781 L 344.738281 217.351562 "/>
<path style="fill:none;stroke-width:0.749409;stroke-linecap:round;stroke-linejoin:round;stroke:rgb(0%,0%,0%);stroke-opacity:1;stroke-miterlimit:10;" d="M 79.550781 110.894531 L 59.703125 110.894531 "/>
<path style="fill:none;stroke-width:0.749409;stroke-linecap:round;stroke-linejoin:round;stroke:rgb(0%,0%,0%);stroke-opacity:1;stroke-miterlimit:10;" d="M 215.800781 120.816406 L 235.644531 120.816406 "/>
<path style="fill:none;stroke-width:0.749409;stroke-linecap:butt;stroke-linejoin:round;stroke:rgb(0%,0%,0%);stroke-opacity:1;stroke-miterlimit:10;" d="M 111.382812 196.601562 L 124.371094 189.117188 "/>
<path style="fill:none;stroke-width:0.749409;stroke-linecap:round;stroke-linejoin:round;stroke:rgb(0%,0%,0%);stroke-opacity:1;stroke-miterlimit:10;" d="M 106.972656 193.957031 L 124.289062 183.972656 "/>
<path style="fill:none;stroke-width:0.749409;stroke-linecap:round;stroke-linejoin:round;stroke:rgb(0%,0%,0%);stroke-opacity:1;stroke-miterlimit:10;" d="M 176.113281 213.976562 L 176.128906 194.015625 "/>
<path style="fill:none;stroke-width:0.749409;stroke-linecap:round;stroke-linejoin:round;stroke:rgb(0%,0%,0%);stroke-opacity:1;stroke-miterlimit:10;" d="M 258.648438 247.257812 L 275.828125 257.175781 "/>
<path style="fill:none;stroke-width:0.749409;stroke-linecap:round;stroke-linejoin:round;stroke:rgb(0%,0%,0%);stroke-opacity:1;stroke-miterlimit:10;" d="M 173.449219 56.683594 L 156.265625 66.605469 "/>
<path style="fill:none;stroke-width:0.749409;stroke-linecap:round;stroke-linejoin:round;stroke:rgb(0%,0%,0%);stroke-opacity:1;stroke-miterlimit:10;" d="M 176.078125 253.8125 L 193.34375 243.859375 "/>
<path style="fill:none;stroke-width:0.749409;stroke-linecap:round;stroke-linejoin:round;stroke:rgb(0%,0%,0%);stroke-opacity:1;stroke-miterlimit:10;" d="M 141.585938 193.988281 L 124.289062 183.972656 "/>
<path style="fill:none;stroke-width:0.749409;stroke-linecap:round;stroke-linejoin:round;stroke:rgb(0%,0%,0%);stroke-opacity:1;stroke-miterlimit:10;" d="M 235.644531 100.972656 L 235.644531 81.128906 "/>
<path style="fill:none;stroke-width:0.749409;stroke-linecap:butt;stroke-linejoin:round;stroke:rgb(0%,0%,0%);stroke-opacity:1;stroke-miterlimit:10;" d="M 263.144531 229.917969 L 263.144531 244.78125 "/>
<path style="fill:none;stroke-width:0.749409;stroke-linecap:round;stroke-linejoin:round;stroke:rgb(0%,0%,0%);stroke-opacity:1;stroke-miterlimit:10;" d="M 258.648438 227.441406 L 258.648438 247.257812 "/>
<path style="fill:none;stroke-width:0.749409;stroke-linecap:round;stroke-linejoin:round;stroke:rgb(0%,0%,0%);stroke-opacity:1;stroke-miterlimit:10;" d="M 39.859375 145.261719 L 39.859375 165.105469 "/>
<path style="fill:none;stroke-width:0.749409;stroke-linecap:round;stroke-linejoin:round;stroke:rgb(0%,0%,0%);stroke-opacity:1;stroke-miterlimit:10;" d="M 389.078125 120.816406 L 389.078125 100.972656 "/>
<path style="fill:none;stroke-width:0.749409;stroke-linecap:round;stroke-linejoin:round;stroke:rgb(0%,0%,0%);stroke-opacity:1;stroke-miterlimit:10;" d="M 275.332031 120.816406 L 295.175781 120.816406 "/>
<path style="fill:none;stroke-width:0.749409;stroke-linecap:round;stroke-linejoin:round;stroke:rgb(0%,0%,0%);stroke-opacity:1;stroke-miterlimit:10;" d="M 292.515625 56.683594 L 272.671875 56.683594 "/>
<path style="fill:none;stroke-width:0.749409;stroke-linecap:round;stroke-linejoin:round;stroke:rgb(0%,0%,0%);stroke-opacity:1;stroke-miterlimit:10;" d="M 119.238281 110.894531 L 99.394531 110.894531 "/>
<path style="fill:none;stroke-width:0.749409;stroke-linecap:butt;stroke-linejoin:round;stroke:rgb(0%,0%,0%);stroke-opacity:1;stroke-miterlimit:10;" d="M 171.675781 271.035156 L 158.753906 278.5 "/>
<path style="fill:none;stroke-width:0.749409;stroke-linecap:round;stroke-linejoin:round;stroke:rgb(0%,0%,0%);stroke-opacity:1;stroke-miterlimit:10;" d="M 176.078125 273.683594 L 158.847656 283.640625 "/>
<path style="fill:none;stroke-width:0.749409;stroke-linecap:butt;stroke-linejoin:round;stroke:rgb(0%,0%,0%);stroke-opacity:1;stroke-miterlimit:10;" d="M 74.410156 119.992188 L 59.523438 119.992188 "/>
<path style="fill:none;stroke-width:0.749409;stroke-linecap:round;stroke-linejoin:round;stroke:rgb(0%,0%,0%);stroke-opacity:1;stroke-miterlimit:10;" d="M 76.890625 115.496094 L 57.042969 115.496094 "/>
<path style="fill:none;stroke-width:0.749409;stroke-linecap:round;stroke-linejoin:round;stroke:rgb(0%,0%,0%);stroke-opacity:1;stroke-miterlimit:10;" d="M 252.828125 56.683594 L 232.984375 56.683594 "/>
<path style="fill:none;stroke-width:0.749409;stroke-linecap:round;stroke-linejoin:round;stroke:rgb(0%,0%,0%);stroke-opacity:1;stroke-miterlimit:10;" d="M 327.472656 247.226562 L 327.472656 227.300781 "/>
<path style="fill:none;stroke-width:0.749409;stroke-linecap:round;stroke-linejoin:round;stroke:rgb(0%,0%,0%);stroke-opacity:1;stroke-miterlimit:10;" d="M 344.738281 217.351562 L 361.972656 227.300781 "/>
<path style="fill:none;stroke-width:0.749409;stroke-linecap:round;stroke-linejoin:round;stroke:rgb(0%,0%,0%);stroke-opacity:1;stroke-miterlimit:10;" d="M 275.828125 257.175781 L 275.828125 277.046875 "/>
<path style="fill:none;stroke-width:0.749409;stroke-linecap:round;stroke-linejoin:round;stroke:rgb(0%,0%,0%);stroke-opacity:1;stroke-miterlimit:10;" d="M 141.617188 273.683594 L 158.847656 283.640625 "/>
<path style="fill:none;stroke-width:0.749409;stroke-linecap:round;stroke-linejoin:round;stroke:rgb(0%,0%,0%);stroke-opacity:1;stroke-miterlimit:10;" d="M 344.707031 257.175781 L 361.972656 247.226562 "/>
<path style="fill:none;stroke-width:0.749409;stroke-linecap:round;stroke-linejoin:round;stroke:rgb(0%,0%,0%);stroke-opacity:1;stroke-miterlimit:10;" d="M 99.394531 110.894531 L 79.550781 110.894531 "/>
<path style="fill:none;stroke-width:0.749409;stroke-linecap:round;stroke-linejoin:round;stroke:rgb(0%,0%,0%);stroke-opacity:1;stroke-miterlimit:10;" d="M 74.230469 224.640625 L 94.074219 224.640625 "/>
<path style="fill:none;stroke-width:0.749409;stroke-linecap:butt;stroke-linejoin:round;stroke:rgb(0%,0%,0%);stroke-opacity:1;stroke-miterlimit:10;" d="M 158.761719 189.175781 L 171.722656 196.664062 "/>
<path style="fill:none;stroke-width:0.749409;stroke-linecap:round;stroke-linejoin:round;stroke:rgb(0%,0%,0%);stroke-opacity:1;stroke-miterlimit:10;" d="M 158.851562 184.035156 L 176.128906 194.015625 "/>
<path style="fill:none;stroke-width:0.749409;stroke-linecap:butt;stroke-linejoin:round;stroke:rgb(0%,0%,0%);stroke-opacity:1;stroke-miterlimit:10;" d="M 173.449219 56.683594 L 174.675781 55.808594 L 176.1875 55.429688 L 177.132812 54.066406 L 178.925781 54.175781 L 179.585938 52.324219 L 181.664062 52.921875 L 182.039062 50.578125 L 184.398438 51.667969 L 184.496094 48.835938 L 187.136719 50.414062 L 186.949219 47.089844 L 189.875 49.160156 L 189.402344 45.347656 L 190.632812 46.761719 "/>
<path style="fill:none;stroke-width:0.749409;stroke-linecap:round;stroke-linejoin:round;stroke:rgb(0%,0%,0%);stroke-opacity:1;stroke-miterlimit:10;" d="M 258.648438 227.441406 L 275.828125 217.519531 "/>
<path style="fill:none;stroke-width:0.749409;stroke-linecap:round;stroke-linejoin:round;stroke:rgb(0%,0%,0%);stroke-opacity:1;stroke-miterlimit:10;" d="M 361.972656 227.300781 L 379.15625 217.378906 "/>
<path style="fill:none;stroke-width:0.749409;stroke-linecap:round;stroke-linejoin:round;stroke:rgb(0%,0%,0%);stroke-opacity:1;stroke-miterlimit:10;" d="M 235.644531 120.816406 L 235.644531 100.972656 "/>
<path style="fill:none;stroke-width:0.749409;stroke-linecap:butt;stroke-linejoin:round;stroke:rgb(0%,0%,0%);stroke-opacity:1;stroke-miterlimit:10;" d="M 188.847656 226.421875 L 188.847656 241.367188 "/>
<path style="fill:none;stroke-width:0.749409;stroke-linecap:round;stroke-linejoin:round;stroke:rgb(0%,0%,0%);stroke-opacity:1;stroke-miterlimit:10;" d="M 193.34375 223.929688 L 193.34375 243.859375 "/>
<path style="fill:none;stroke-width:0.749409;stroke-linecap:butt;stroke-linejoin:round;stroke:rgb(0%,0%,0%);stroke-opacity:1;stroke-miterlimit:10;" d="M 280.222656 214.867188 L 293.128906 222.308594 "/>
<path style="fill:none;stroke-width:0.749409;stroke-linecap:round;stroke-linejoin:round;stroke:rgb(0%,0%,0%);stroke-opacity:1;stroke-miterlimit:10;" d="M 275.828125 217.519531 L 293.035156 227.441406 "/>
<path style="fill:none;stroke-width:0.749409;stroke-linecap:round;stroke-linejoin:round;stroke:rgb(0%,0%,0%);stroke-opacity:1;stroke-miterlimit:10;" d="M 49.78125 128.078125 L 39.859375 145.261719 "/>
<path style="fill:none;stroke-width:0.749409;stroke-linecap:round;stroke-linejoin:round;stroke:rgb(0%,0%,0%);stroke-opacity:1;stroke-miterlimit:10;" d="M 156.265625 66.605469 L 139.082031 76.527344 "/>
<path style="fill:none;stroke-width:0.749409;stroke-linecap:round;stroke-linejoin:round;stroke:rgb(0%,0%,0%);stroke-opacity:1;stroke-miterlimit:10;" d="M 310.183594 217.324219 L 293.035156 227.441406 "/>
<path style="fill:none;stroke-width:0.749409;stroke-linecap:butt;stroke-linejoin:round;stroke:rgb(0%,0%,0%);stroke-opacity:1;stroke-miterlimit:10;" d="M 293.128906 252.390625 L 280.222656 259.832031 "/>
<path style="fill:none;stroke-width:0.749409;stroke-linecap:round;stroke-linejoin:round;stroke:rgb(0%,0%,0%);stroke-opacity:1;stroke-miterlimit:10;" d="M 293.035156 247.257812 L 275.828125 257.175781 "/>
<path style="fill:none;stroke-width:0.749409;stroke-linecap:butt;stroke-linejoin:round;stroke:rgb(0%,0%,0%);stroke-opacity:1;stroke-miterlimit:10;" d="M 137.425781 475.242188 L 150.1875 482.902344 "/>
<path style="fill:none;stroke-width:0.749409;stroke-linecap:round;stroke-linejoin:round;stroke:rgb(0%,0%,0%);stroke-opacity:1;stroke-miterlimit:10;" d="M 137.621094 470.140625 L 154.636719 480.351562 "/>
<path style="fill:none;stroke-width:0.749409;stroke-linecap:butt;stroke-linejoin:round;stroke:rgb(0%,0%,0%);stroke-opacity:1;stroke-miterlimit:10;" d="M 103.238281 474.617188 L 90.234375 481.761719 "/>
<path style="fill:none;stroke-width:0.749409;stroke-linecap:round;stroke-linejoin:round;stroke:rgb(0%,0%,0%);stroke-opacity:1;stroke-miterlimit:10;" d="M 103.230469 469.511719 L 85.890625 479.039062 "/>
<path style="fill:none;stroke-width:0.749409;stroke-linecap:round;stroke-linejoin:round;stroke:rgb(0%,0%,0%);stroke-opacity:1;stroke-miterlimit:10;" d="M 120.230469 479.695312 L 137.621094 470.140625 "/>
<path style="fill:none;stroke-width:0.749409;stroke-linecap:round;stroke-linejoin:round;stroke:rgb(0%,0%,0%);stroke-opacity:1;stroke-miterlimit:10;" d="M 85.890625 479.039062 L 85.519531 498.765625 "/>
<path style="fill:none;stroke-width:0.749409;stroke-linecap:round;stroke-linejoin:round;stroke:rgb(0%,0%,0%);stroke-opacity:1;stroke-miterlimit:10;" d="M 103.230469 469.511719 L 120.230469 479.695312 "/>
<path style="fill:none;stroke-width:0.749409;stroke-linecap:butt;stroke-linejoin:round;stroke:rgb(0%,0%,0%);stroke-opacity:1;stroke-miterlimit:10;" d="M 149.914062 497.355469 L 136.871094 504.523438 "/>
<path style="fill:none;stroke-width:0.749409;stroke-linecap:round;stroke-linejoin:round;stroke:rgb(0%,0%,0%);stroke-opacity:1;stroke-miterlimit:10;" d="M 154.265625 500.074219 L 136.875 509.628906 "/>
<path style="fill:none;stroke-width:0.749409;stroke-linecap:round;stroke-linejoin:round;stroke:rgb(0%,0%,0%);stroke-opacity:1;stroke-miterlimit:10;" d="M 119.859375 499.417969 L 136.875 509.628906 "/>
<path style="fill:none;stroke-width:0.749409;stroke-linecap:round;stroke-linejoin:round;stroke:rgb(0%,0%,0%);stroke-opacity:1;stroke-miterlimit:10;" d="M 154.636719 480.351562 L 154.265625 500.074219 "/>
<path style="fill:none;stroke-width:0.749409;stroke-linecap:butt;stroke-linejoin:round;stroke:rgb(0%,0%,0%);stroke-opacity:1;stroke-miterlimit:10;" d="M 102.714844 503.84375 L 89.960938 496.207031 "/>
<path style="fill:none;stroke-width:0.749409;stroke-linecap:round;stroke-linejoin:round;stroke:rgb(0%,0%,0%);stroke-opacity:1;stroke-miterlimit:10;" d="M 102.519531 508.945312 L 85.519531 498.765625 "/>
<path style="fill:none;stroke-width:0.749409;stroke-linecap:butt;stroke-linejoin:round;stroke:rgb(0%,0%,0%);stroke-opacity:1;stroke-miterlimit:10;" d="M 124.679688 482.246094 L 124.402344 497.039062 "/>
<path style="fill:none;stroke-width:0.749409;stroke-linecap:round;stroke-linejoin:round;stroke:rgb(0%,0%,0%);stroke-opacity:1;stroke-miterlimit:10;" d="M 120.230469 479.695312 L 119.859375 499.417969 "/>
<path style="fill:none;stroke-width:0.749409;stroke-linecap:round;stroke-linejoin:round;stroke:rgb(0%,0%,0%);stroke-opacity:1;stroke-miterlimit:10;" d="M 119.859375 499.417969 L 102.519531 508.945312 "/>
<path style=" stroke:none;fill-rule:evenodd;fill:rgb(0%,0%,0%);fill-opacity:1;" d="M 101.851562 520.816406 L 100.757812 520.816406 L 100.757812 528.191406 L 96.054688 520.816406 L 94.804688 520.816406 L 94.804688 529.832031 L 95.898438 529.832031 L 95.898438 522.535156 L 100.554688 529.832031 L 101.851562 529.832031 Z M 109.398438 529.222656 C 109.289062 529.253906 109.242188 529.253906 109.179688 529.253906 C 108.820312 529.253906 108.617188 529.066406 108.617188 528.738281 L 108.617188 524.941406 C 108.617188 523.785156 107.789062 523.175781 106.195312 523.175781 C 105.242188 523.175781 104.476562 523.441406 104.039062 523.925781 C 103.742188 524.253906 103.617188 524.628906 103.585938 525.269531 L 104.632812 525.269531 C 104.710938 524.472656 105.179688 524.128906 106.148438 524.128906 C 107.070312 524.128906 107.601562 524.472656 107.601562 525.082031 L 107.601562 525.363281 C 107.601562 525.785156 107.335938 525.972656 106.523438 526.082031 C 105.070312 526.253906 104.835938 526.316406 104.445312 526.472656 C 103.695312 526.785156 103.304688 527.363281 103.304688 528.207031 C 103.304688 529.378906 104.117188 530.113281 105.429688 530.113281 C 106.242188 530.113281 106.898438 529.832031 107.632812 529.160156 C 107.710938 529.816406 108.023438 530.113281 108.695312 530.113281 C 108.914062 530.113281 109.070312 530.097656 109.398438 530.003906 Z M 107.601562 527.785156 C 107.601562 528.144531 107.492188 528.347656 107.195312 528.628906 C 106.773438 529.019531 106.257812 529.207031 105.664062 529.207031 C 104.851562 529.207031 104.382812 528.832031 104.382812 528.175781 C 104.382812 527.503906 104.835938 527.144531 105.945312 526.988281 C 107.023438 526.847656 107.257812 526.785156 107.601562 526.628906 Z M 112.851562 523.363281 L 111.773438 523.363281 L 111.773438 522.347656 C 111.773438 521.910156 112.023438 521.691406 112.492188 521.691406 C 112.585938 521.691406 112.617188 521.691406 112.851562 521.707031 L 112.851562 520.847656 C 112.617188 520.800781 112.476562 520.785156 112.273438 520.785156 C 111.320312 520.785156 110.757812 521.332031 110.757812 522.253906 L 110.757812 523.363281 L 109.882812 523.363281 L 109.882812 524.191406 L 110.757812 524.191406 L 110.757812 529.832031 L 111.773438 529.832031 L 111.773438 524.191406 L 112.851562 524.191406 Z M 116.238281 523.363281 L 115.175781 523.363281 L 115.175781 521.582031 L 114.144531 521.582031 L 114.144531 523.363281 L 113.269531 523.363281 L 113.269531 524.191406 L 114.144531 524.191406 L 114.144531 529.097656 C 114.144531 529.738281 114.597656 530.113281 115.394531 530.113281 C 115.644531 530.113281 115.894531 530.097656 116.238281 530.035156 L 116.238281 529.160156 C 116.097656 529.207031 115.941406 529.207031 115.738281 529.207031 C 115.300781 529.207031 115.175781 529.097656 115.175781 528.628906 L 115.175781 524.191406 L 116.238281 524.191406 Z M 123.144531 529.222656 C 123.035156 529.253906 122.988281 529.253906 122.925781 529.253906 C 122.566406 529.253906 122.363281 529.066406 122.363281 528.738281 L 122.363281 524.941406 C 122.363281 523.785156 121.535156 523.175781 119.941406 523.175781 C 118.988281 523.175781 118.222656 523.441406 117.785156 523.925781 C 117.488281 524.253906 117.363281 524.628906 117.332031 525.269531 L 118.378906 525.269531 C 118.457031 524.472656 118.925781 524.128906 119.894531 524.128906 C 120.816406 524.128906 121.347656 524.472656 121.347656 525.082031 L 121.347656 525.363281 C 121.347656 525.785156 121.082031 525.972656 120.269531 526.082031 C 118.816406 526.253906 118.582031 526.316406 118.191406 526.472656 C 117.441406 526.785156 117.050781 527.363281 117.050781 528.207031 C 117.050781 529.378906 117.863281 530.113281 119.175781 530.113281 C 119.988281 530.113281 120.644531 529.832031 121.378906 529.160156 C 121.457031 529.816406 121.769531 530.113281 122.441406 530.113281 C 122.660156 530.113281 122.816406 530.097656 123.144531 530.003906 Z M 121.347656 527.785156 C 121.347656 528.144531 121.238281 528.347656 120.941406 528.628906 C 120.519531 529.019531 120.003906 529.207031 119.410156 529.207031 C 118.597656 529.207031 118.128906 528.832031 118.128906 528.175781 C 118.128906 527.503906 118.582031 527.144531 119.691406 526.988281 C 120.769531 526.847656 121.003906 526.785156 121.347656 526.628906 Z M 125.28125 520.816406 L 124.25 520.816406 L 124.25 529.832031 L 125.28125 529.832031 Z M 132.492188 526.941406 C 132.492188 525.957031 132.414062 525.363281 132.226562 524.878906 C 131.804688 523.816406 130.820312 523.175781 129.601562 523.175781 C 127.804688 523.175781 126.648438 524.550781 126.648438 526.675781 C 126.648438 528.800781 127.773438 530.113281 129.585938 530.113281 C 131.070312 530.113281 132.085938 529.269531 132.351562 527.863281 L 131.320312 527.863281 C 131.023438 528.722656 130.445312 529.160156 129.617188 529.160156 C 128.960938 529.160156 128.414062 528.863281 128.070312 528.316406 C 127.820312 527.957031 127.726562 527.582031 127.710938 526.941406 Z M 127.742188 526.097656 C 127.835938 524.894531 128.554688 524.128906 129.601562 524.128906 C 130.617188 524.128906 131.382812 524.957031 131.382812 526.019531 C 131.382812 526.050781 131.382812 526.082031 131.382812 526.097656 Z M 133.882812 523.363281 L 133.882812 529.832031 L 134.929688 529.832031 L 134.929688 526.253906 C 134.929688 524.941406 135.617188 524.066406 136.679688 524.066406 C 137.492188 524.066406 138.023438 524.566406 138.023438 525.347656 L 138.023438 529.832031 L 139.039062 529.832031 L 139.039062 524.941406 C 139.039062 523.863281 138.242188 523.175781 136.992188 523.175781 C 136.023438 523.175781 135.414062 523.535156 134.835938 524.441406 L 134.835938 523.363281 Z M 146.503906 529.222656 C 146.394531 529.253906 146.347656 529.253906 146.285156 529.253906 C 145.925781 529.253906 145.722656 529.066406 145.722656 528.738281 L 145.722656 524.941406 C 145.722656 523.785156 144.894531 523.175781 143.300781 523.175781 C 142.347656 523.175781 141.582031 523.441406 141.144531 523.925781 C 140.847656 524.253906 140.722656 524.628906 140.691406 525.269531 L 141.738281 525.269531 C 141.816406 524.472656 142.285156 524.128906 143.253906 524.128906 C 144.175781 524.128906 144.707031 524.472656 144.707031 525.082031 L 144.707031 525.363281 C 144.707031 525.785156 144.441406 525.972656 143.628906 526.082031 C 142.175781 526.253906 141.941406 526.316406 141.550781 526.472656 C 140.800781 526.785156 140.410156 527.363281 140.410156 528.207031 C 140.410156 529.378906 141.222656 530.113281 142.535156 530.113281 C 143.347656 530.113281 144.003906 529.832031 144.738281 529.160156 C 144.816406 529.816406 145.128906 530.113281 145.800781 530.113281 C 146.019531 530.113281 146.175781 530.097656 146.503906 530.003906 Z M 144.707031 527.785156 C 144.707031 528.144531 144.597656 528.347656 144.300781 528.628906 C 143.878906 529.019531 143.363281 529.207031 142.769531 529.207031 C 141.957031 529.207031 141.488281 528.832031 141.488281 528.175781 C 141.488281 527.503906 141.941406 527.144531 143.050781 526.988281 C 144.128906 526.847656 144.363281 526.785156 144.707031 526.628906 Z M 146.765625 529.832031 "/>
<path style=" stroke:none;fill-rule:evenodd;fill:rgb(0%,0%,0%);fill-opacity:1;" d="M 179.429688 497.683594 L 176.585938 497.683594 L 176.585938 494.839844 L 175.632812 494.839844 L 175.632812 497.683594 L 172.789062 497.683594 L 172.789062 498.652344 L 175.632812 498.652344 L 175.632812 501.496094 L 176.585938 501.496094 L 176.585938 498.652344 L 179.429688 498.652344 Z M 180.121094 501.355469 "/>
<path style=" stroke:none;fill-rule:evenodd;fill:rgb(0%,0%,0%);fill-opacity:1;" d="M 203 499.664062 C 202.984375 497.960938 201.8125 496.960938 199.796875 496.960938 C 197.875 496.960938 196.6875 497.945312 196.6875 499.523438 C 196.6875 500.601562 197.25 501.273438 198.40625 501.570312 L 200.578125 502.148438 C 201.671875 502.429688 202.1875 502.882812 202.1875 503.554688 C 202.1875 504.023438 201.921875 504.507812 201.5625 504.773438 C 201.203125 505.007812 200.65625 505.148438 199.953125 505.148438 C 199 505.148438 198.359375 504.914062 197.9375 504.414062 C 197.609375 504.023438 197.46875 503.601562 197.46875 503.070312 L 196.421875 503.070312 C 196.4375 503.867188 196.59375 504.398438 196.9375 504.882812 C 197.53125 505.695312 198.546875 506.132812 199.875 506.132812 C 200.921875 506.132812 201.765625 505.882812 202.328125 505.460938 C 202.921875 504.992188 203.296875 504.210938 203.296875 503.445312 C 203.296875 502.367188 202.625 501.585938 201.4375 501.257812 L 199.234375 500.664062 C 198.1875 500.382812 197.796875 500.039062 197.796875 499.367188 C 197.796875 498.476562 198.578125 497.898438 199.75 497.898438 C 201.140625 497.898438 201.921875 498.539062 201.9375 499.664062 Z M 208.519531 496.960938 C 206.003906 496.960938 204.300781 498.804688 204.300781 501.539062 C 204.300781 504.273438 206.003906 506.132812 208.535156 506.132812 C 209.582031 506.132812 210.535156 505.804688 211.238281 505.210938 C 212.191406 504.398438 212.753906 503.039062 212.753906 501.617188 C 212.753906 498.789062 211.082031 496.960938 208.519531 496.960938 Z M 208.519531 497.945312 C 210.410156 497.945312 211.628906 499.382812 211.628906 501.585938 C 211.628906 503.710938 210.378906 505.148438 208.535156 505.148438 C 206.660156 505.148438 205.425781 503.710938 205.425781 501.539062 C 205.425781 499.382812 206.660156 497.945312 208.519531 497.945312 Z M 213.183594 505.851562 "/>
<path style=" stroke:none;fill-rule:evenodd;fill:rgb(0%,0%,0%);fill-opacity:1;" d="M 215.082031 507.738281 L 215.160156 507.738281 L 215.457031 507.722656 C 216.238281 507.722656 216.644531 508.082031 216.644531 508.769531 C 216.644531 509.472656 216.207031 509.910156 215.457031 509.910156 C 214.691406 509.910156 214.316406 509.519531 214.269531 508.691406 L 213.550781 508.691406 C 213.597656 509.144531 213.675781 509.441406 213.800781 509.707031 C 214.097656 510.253906 214.660156 510.535156 215.441406 510.535156 C 216.613281 510.535156 217.363281 509.832031 217.363281 508.753906 C 217.363281 508.035156 217.082031 507.628906 216.394531 507.394531 C 216.925781 507.191406 217.191406 506.785156 217.191406 506.222656 C 217.191406 505.238281 216.550781 504.660156 215.457031 504.660156 C 214.316406 504.660156 213.707031 505.285156 213.675781 506.488281 L 214.378906 506.488281 C 214.394531 506.144531 214.425781 505.957031 214.519531 505.785156 C 214.675781 505.457031 215.035156 505.269531 215.472656 505.269531 C 216.097656 505.269531 216.472656 505.644531 216.472656 506.238281 C 216.472656 506.644531 216.332031 506.878906 216.019531 507.019531 C 215.816406 507.097656 215.566406 507.128906 215.082031 507.128906 Z M 217.765625 510.347656 "/>
<path style="fill:none;stroke-width:0.749409;stroke-linecap:butt;stroke-linejoin:round;stroke:rgb(0%,0%,0%);stroke-opacity:1;stroke-miterlimit:10;" d="M 227.03125 490.507812 L 263.28125 475.179688 L 262.40625 475.359375 L 221.507812 492.84375 L 263.28125 475.179688 "/>
<path style="fill-rule:evenodd;fill:rgb(0%,0%,0%);fill-opacity:1;stroke-width:0.749409;stroke-linecap:butt;stroke-linejoin:miter;stroke:rgb(0%,0%,0%);stroke-opacity:1;stroke-miterlimit:10;" d="M 227.03125 490.507812 L 221.507812 492.84375 L 229.285156 491.996094 Z M 227.03125 490.507812 "/>
<path style="fill:none;stroke-width:0.749409;stroke-linecap:butt;stroke-linejoin:round;stroke:rgb(0%,0%,0%);stroke-opacity:1;stroke-miterlimit:10;" d="M 219.757812 488.699219 L 261.53125 471.039062 L 262.40625 470.859375 L 219.757812 488.699219 L 256.007812 473.375 "/>
<path style="fill-rule:evenodd;fill:rgb(0%,0%,0%);fill-opacity:1;stroke-width:0.749409;stroke-linecap:butt;stroke-linejoin:miter;stroke:rgb(0%,0%,0%);stroke-opacity:1;stroke-miterlimit:10;" d="M 256.007812 473.375 L 261.53125 471.039062 L 253.753906 471.886719 Z M 256.007812 473.375 "/>
<path style="fill:none;stroke-width:0.749409;stroke-linecap:butt;stroke-linejoin:round;stroke:rgb(0%,0%,0%);stroke-opacity:1;stroke-miterlimit:10;" d="M 225.542969 519.886719 L 261.476562 538.589844 L 261.476562 533.519531 L 222.300781 513.128906 L 262.515625 534.058594 "/>
<path style="fill-rule:evenodd;fill:rgb(0%,0%,0%);fill-opacity:1;stroke-width:0.749409;stroke-linecap:butt;stroke-linejoin:miter;stroke:rgb(0%,0%,0%);stroke-opacity:1;stroke-miterlimit:10;" d="M 225.542969 519.886719 L 220.226562 517.121094 L 225.835938 522.574219 Z M 225.542969 519.886719 "/>
<path style="fill:none;stroke-width:0.749409;stroke-linecap:butt;stroke-linejoin:round;stroke:rgb(0%,0%,0%);stroke-opacity:1;stroke-miterlimit:10;" d="M 222.300781 513.128906 L 261.476562 533.519531 L 261.476562 533.804688 L 261.476562 531.558594 L 262.433594 539.085938 L 220.226562 517.121094 L 255.121094 535.28125 "/>
<path style="fill-rule:evenodd;fill:rgb(0%,0%,0%);fill-opacity:1;stroke-width:0.749409;stroke-linecap:butt;stroke-linejoin:miter;stroke:rgb(0%,0%,0%);stroke-opacity:1;stroke-miterlimit:10;" d="M 255.121094 535.28125 L 260.441406 538.050781 L 254.832031 532.59375 Z M 255.121094 535.28125 "/>
<path style="fill:none;stroke-width:0.749409;stroke-linecap:round;stroke-linejoin:round;stroke:rgb(0%,0%,0%);stroke-opacity:1;stroke-miterlimit:10;" d="M 287.289062 445.417969 L 304.683594 454.914062 "/>
<path style="fill:none;stroke-width:0.749409;stroke-linecap:round;stroke-linejoin:round;stroke:rgb(0%,0%,0%);stroke-opacity:1;stroke-miterlimit:10;" d="M 270.339844 455.628906 L 270.753906 475.355469 "/>
<path style="fill:none;stroke-width:0.749409;stroke-linecap:butt;stroke-linejoin:round;stroke:rgb(0%,0%,0%);stroke-opacity:1;stroke-miterlimit:10;" d="M 335.042969 471.367188 L 322.304688 479.0625 "/>
<path style="fill:none;stroke-width:0.749409;stroke-linecap:round;stroke-linejoin:round;stroke:rgb(0%,0%,0%);stroke-opacity:1;stroke-miterlimit:10;" d="M 339.5 473.90625 L 322.515625 484.167969 "/>
<path style="fill:none;stroke-width:0.749409;stroke-linecap:butt;stroke-linejoin:round;stroke:rgb(0%,0%,0%);stroke-opacity:1;stroke-miterlimit:10;" d="M 321.707031 449.785156 L 334.75 456.929688 "/>
<path style="fill:none;stroke-width:0.749409;stroke-linecap:round;stroke-linejoin:round;stroke:rgb(0%,0%,0%);stroke-opacity:1;stroke-miterlimit:10;" d="M 321.695312 444.65625 L 339.085938 454.175781 "/>
<path style="fill:none;stroke-width:0.749409;stroke-linecap:round;stroke-linejoin:round;stroke:rgb(0%,0%,0%);stroke-opacity:1;stroke-miterlimit:10;" d="M 305.097656 474.640625 L 322.515625 484.167969 "/>
<path style="fill:none;stroke-width:0.749409;stroke-linecap:butt;stroke-linejoin:round;stroke:rgb(0%,0%,0%);stroke-opacity:1;stroke-miterlimit:10;" d="M 309.230469 457.285156 L 309.539062 472.082031 "/>
<path style="fill:none;stroke-width:0.749409;stroke-linecap:round;stroke-linejoin:round;stroke:rgb(0%,0%,0%);stroke-opacity:1;stroke-miterlimit:10;" d="M 304.683594 454.914062 L 305.097656 474.640625 "/>
<path style="fill:none;stroke-width:0.749409;stroke-linecap:round;stroke-linejoin:round;stroke:rgb(0%,0%,0%);stroke-opacity:1;stroke-miterlimit:10;" d="M 339.085938 454.175781 L 339.5 473.90625 "/>
<path style="fill:none;stroke-width:0.749409;stroke-linecap:butt;stroke-linejoin:round;stroke:rgb(0%,0%,0%);stroke-opacity:1;stroke-miterlimit:10;" d="M 288.136719 479.742188 L 275.089844 472.621094 "/>
<path style="fill:none;stroke-width:0.749409;stroke-linecap:round;stroke-linejoin:round;stroke:rgb(0%,0%,0%);stroke-opacity:1;stroke-miterlimit:10;" d="M 288.148438 484.847656 L 270.753906 475.355469 "/>
<path style="fill:none;stroke-width:0.749409;stroke-linecap:round;stroke-linejoin:round;stroke:rgb(0%,0%,0%);stroke-opacity:1;stroke-miterlimit:10;" d="M 321.695312 444.65625 L 323.675781 424.910156 "/>
<path style="fill:none;stroke-width:0.749409;stroke-linecap:butt;stroke-linejoin:round;stroke:rgb(0%,0%,0%);stroke-opacity:1;stroke-miterlimit:10;" d="M 287.5 450.519531 L 274.789062 458.175781 "/>
<path style="fill:none;stroke-width:0.749409;stroke-linecap:round;stroke-linejoin:round;stroke:rgb(0%,0%,0%);stroke-opacity:1;stroke-miterlimit:10;" d="M 287.289062 445.417969 L 270.339844 455.628906 "/>
<path style="fill:none;stroke-width:0.749409;stroke-linecap:round;stroke-linejoin:round;stroke:rgb(0%,0%,0%);stroke-opacity:1;stroke-miterlimit:10;" d="M 305.097656 474.640625 L 288.148438 484.847656 "/>
<path style="fill:none;stroke-width:0.749409;stroke-linecap:round;stroke-linejoin:round;stroke:rgb(0%,0%,0%);stroke-opacity:1;stroke-miterlimit:10;" d="M 304.683594 454.914062 L 321.695312 444.65625 "/>
<path style="fill:none;stroke-width:0.749409;stroke-linecap:round;stroke-linejoin:round;stroke:rgb(0%,0%,0%);stroke-opacity:1;stroke-miterlimit:10;" d="M 346.015625 528.414062 L 346.429688 548.140625 "/>
<path style="fill:none;stroke-width:0.749409;stroke-linecap:butt;stroke-linejoin:round;stroke:rgb(0%,0%,0%);stroke-opacity:1;stroke-miterlimit:10;" d="M 295.066406 553.980469 L 282.023438 546.859375 "/>
<path style="fill:none;stroke-width:0.749409;stroke-linecap:round;stroke-linejoin:round;stroke:rgb(0%,0%,0%);stroke-opacity:1;stroke-miterlimit:10;" d="M 295.078125 559.085938 L 277.683594 549.59375 "/>
<path style="fill:none;stroke-width:0.749409;stroke-linecap:butt;stroke-linejoin:round;stroke:rgb(0%,0%,0%);stroke-opacity:1;stroke-miterlimit:10;" d="M 316.160156 531.523438 L 316.472656 546.320312 "/>
<path style="fill:none;stroke-width:0.749409;stroke-linecap:round;stroke-linejoin:round;stroke:rgb(0%,0%,0%);stroke-opacity:1;stroke-miterlimit:10;" d="M 311.613281 529.152344 L 312.027344 548.878906 "/>
<path style="fill:none;stroke-width:0.749409;stroke-linecap:round;stroke-linejoin:round;stroke:rgb(0%,0%,0%);stroke-opacity:1;stroke-miterlimit:10;" d="M 312.027344 548.878906 L 295.078125 559.085938 "/>
<path style="fill:none;stroke-width:0.749409;stroke-linecap:round;stroke-linejoin:round;stroke:rgb(0%,0%,0%);stroke-opacity:1;stroke-miterlimit:10;" d="M 346.015625 528.414062 L 364.105469 520.257812 "/>
<path style="fill:none;stroke-width:0.749409;stroke-linecap:round;stroke-linejoin:round;stroke:rgb(0%,0%,0%);stroke-opacity:1;stroke-miterlimit:10;" d="M 277.269531 529.863281 L 277.683594 549.59375 "/>
<path style="fill:none;stroke-width:0.749409;stroke-linecap:butt;stroke-linejoin:round;stroke:rgb(0%,0%,0%);stroke-opacity:1;stroke-miterlimit:10;" d="M 328.632812 524.015625 L 341.675781 531.15625 "/>
<path style="fill:none;stroke-width:0.749409;stroke-linecap:round;stroke-linejoin:round;stroke:rgb(0%,0%,0%);stroke-opacity:1;stroke-miterlimit:10;" d="M 328.625 518.894531 L 346.015625 528.414062 "/>
<path style="fill:none;stroke-width:0.749409;stroke-linecap:butt;stroke-linejoin:round;stroke:rgb(0%,0%,0%);stroke-opacity:1;stroke-miterlimit:10;" d="M 294.429688 524.757812 L 281.71875 532.414062 "/>
<path style="fill:none;stroke-width:0.749409;stroke-linecap:round;stroke-linejoin:round;stroke:rgb(0%,0%,0%);stroke-opacity:1;stroke-miterlimit:10;" d="M 294.21875 519.65625 L 277.269531 529.863281 "/>
<path style="fill:none;stroke-width:0.749409;stroke-linecap:round;stroke-linejoin:round;stroke:rgb(0%,0%,0%);stroke-opacity:1;stroke-miterlimit:10;" d="M 311.613281 529.152344 L 328.625 518.894531 "/>
<path style="fill:none;stroke-width:0.749409;stroke-linecap:butt;stroke-linejoin:round;stroke:rgb(0%,0%,0%);stroke-opacity:1;stroke-miterlimit:10;" d="M 341.972656 545.605469 L 329.234375 553.300781 "/>
<path style="fill:none;stroke-width:0.749409;stroke-linecap:round;stroke-linejoin:round;stroke:rgb(0%,0%,0%);stroke-opacity:1;stroke-miterlimit:10;" d="M 346.429688 548.140625 L 329.445312 558.402344 "/>
<path style="fill:none;stroke-width:0.749409;stroke-linecap:round;stroke-linejoin:round;stroke:rgb(0%,0%,0%);stroke-opacity:1;stroke-miterlimit:10;" d="M 312.027344 548.878906 L 329.445312 558.402344 "/>
<path style="fill:none;stroke-width:0.749409;stroke-linecap:round;stroke-linejoin:round;stroke:rgb(0%,0%,0%);stroke-opacity:1;stroke-miterlimit:10;" d="M 294.21875 519.65625 L 311.613281 529.152344 "/>
<path style="fill:none;stroke-width:0.749409;stroke-linecap:butt;stroke-linejoin:round;stroke:rgb(0%,0%,0%);stroke-opacity:1;stroke-miterlimit:10;" d="M 296.015625 120.65625 L 362.714844 121.40625 L 389.691406 103.417969 "/>
<path style="fill:none;stroke-width:0.749409;stroke-linecap:butt;stroke-linejoin:round;stroke:rgb(0%,0%,0%);stroke-opacity:1;stroke-miterlimit:10;" d="M 234.566406 62.199219 L 233.816406 57.703125 "/>
<path style=" stroke:none;fill-rule:evenodd;fill:rgb(0%,0%,0%);fill-opacity:1;" d="M 377.613281 515.402344 C 377.597656 513.699219 376.425781 512.699219 374.410156 512.699219 C 372.488281 512.699219 371.300781 513.683594 371.300781 515.261719 C 371.300781 516.339844 371.863281 517.011719 373.019531 517.308594 L 375.191406 517.886719 C 376.285156 518.167969 376.800781 518.621094 376.800781 519.292969 C 376.800781 519.761719 376.535156 520.246094 376.175781 520.511719 C 375.816406 520.746094 375.269531 520.886719 374.566406 520.886719 C 373.613281 520.886719 372.972656 520.652344 372.550781 520.152344 C 372.222656 519.761719 372.082031 519.339844 372.082031 518.808594 L 371.035156 518.808594 C 371.050781 519.605469 371.207031 520.136719 371.550781 520.621094 C 372.144531 521.433594 373.160156 521.871094 374.488281 521.871094 C 375.535156 521.871094 376.378906 521.621094 376.941406 521.199219 C 377.535156 520.730469 377.910156 519.949219 377.910156 519.183594 C 377.910156 518.105469 377.238281 517.324219 376.050781 516.996094 L 373.847656 516.402344 C 372.800781 516.121094 372.410156 515.777344 372.410156 515.105469 C 372.410156 514.214844 373.191406 513.636719 374.363281 513.636719 C 375.753906 513.636719 376.535156 514.277344 376.550781 515.402344 Z M 383.132812 512.699219 C 380.617188 512.699219 378.914062 514.542969 378.914062 517.277344 C 378.914062 520.011719 380.617188 521.871094 383.148438 521.871094 C 384.195312 521.871094 385.148438 521.542969 385.851562 520.949219 C 386.804688 520.136719 387.367188 518.777344 387.367188 517.355469 C 387.367188 514.527344 385.695312 512.699219 383.132812 512.699219 Z M 383.132812 513.683594 C 385.023438 513.683594 386.242188 515.121094 386.242188 517.324219 C 386.242188 519.449219 384.992188 520.886719 383.148438 520.886719 C 381.273438 520.886719 380.039062 519.449219 380.039062 517.277344 C 380.039062 515.121094 381.273438 513.683594 383.132812 513.683594 Z M 387.796875 521.589844 "/>
<path style=" stroke:none;fill-rule:evenodd;fill:rgb(0%,0%,0%);fill-opacity:1;" d="M 389.691406 523.476562 L 389.769531 523.476562 L 390.066406 523.460938 C 390.847656 523.460938 391.253906 523.820312 391.253906 524.507812 C 391.253906 525.210938 390.816406 525.648438 390.066406 525.648438 C 389.300781 525.648438 388.925781 525.257812 388.878906 524.429688 L 388.160156 524.429688 C 388.207031 524.882812 388.285156 525.179688 388.410156 525.445312 C 388.707031 525.992188 389.269531 526.273438 390.050781 526.273438 C 391.222656 526.273438 391.972656 525.570312 391.972656 524.492188 C 391.972656 523.773438 391.691406 523.367188 391.003906 523.132812 C 391.535156 522.929688 391.800781 522.523438 391.800781 521.960938 C 391.800781 520.976562 391.160156 520.398438 390.066406 520.398438 C 388.925781 520.398438 388.316406 521.023438 388.285156 522.226562 L 388.988281 522.226562 C 389.003906 521.882812 389.035156 521.695312 389.128906 521.523438 C 389.285156 521.195312 389.644531 521.007812 390.082031 521.007812 C 390.707031 521.007812 391.082031 521.382812 391.082031 521.976562 C 391.082031 522.382812 390.941406 522.617188 390.628906 522.757812 C 390.425781 522.835938 390.175781 522.867188 389.691406 522.867188 Z M 392.375 526.085938 "/>
<path style=" stroke:none;fill-rule:evenodd;fill:rgb(0%,0%,0%);fill-opacity:1;" d="M 399.804688 517.605469 L 399.804688 521.589844 L 400.929688 521.589844 L 400.929688 512.839844 L 399.804688 512.839844 L 399.804688 516.621094 L 395.304688 516.621094 L 395.304688 512.839844 L 394.195312 512.839844 L 394.195312 521.589844 L 395.320312 521.589844 L 395.320312 517.605469 Z M 401.859375 521.589844 "/>
<path style=" stroke:none;fill-rule:evenodd;fill:rgb(0%,0%,0%);fill-opacity:1;" d="M 313.164062 403.738281 C 313.148438 402.035156 311.976562 401.035156 309.960938 401.035156 C 308.039062 401.035156 306.851562 402.019531 306.851562 403.597656 C 306.851562 404.675781 307.414062 405.347656 308.570312 405.644531 L 310.742188 406.222656 C 311.835938 406.503906 312.351562 406.957031 312.351562 407.628906 C 312.351562 408.097656 312.085938 408.582031 311.726562 408.847656 C 311.367188 409.082031 310.820312 409.222656 310.117188 409.222656 C 309.164062 409.222656 308.523438 408.988281 308.101562 408.488281 C 307.773438 408.097656 307.632812 407.675781 307.632812 407.144531 L 306.585938 407.144531 C 306.601562 407.941406 306.757812 408.472656 307.101562 408.957031 C 307.695312 409.769531 308.710938 410.207031 310.039062 410.207031 C 311.085938 410.207031 311.929688 409.957031 312.492188 409.535156 C 313.085938 409.066406 313.460938 408.285156 313.460938 407.519531 C 313.460938 406.441406 312.789062 405.660156 311.601562 405.332031 L 309.398438 404.738281 C 308.351562 404.457031 307.960938 404.113281 307.960938 403.441406 C 307.960938 402.550781 308.742188 401.972656 309.914062 401.972656 C 311.304688 401.972656 312.085938 402.613281 312.101562 403.738281 Z M 318.683594 401.035156 C 316.167969 401.035156 314.464844 402.878906 314.464844 405.613281 C 314.464844 408.347656 316.167969 410.207031 318.699219 410.207031 C 319.746094 410.207031 320.699219 409.878906 321.402344 409.285156 C 322.355469 408.472656 322.917969 407.113281 322.917969 405.691406 C 322.917969 402.863281 321.246094 401.035156 318.683594 401.035156 Z M 318.683594 402.019531 C 320.574219 402.019531 321.792969 403.457031 321.792969 405.660156 C 321.792969 407.785156 320.542969 409.222656 318.699219 409.222656 C 316.824219 409.222656 315.589844 407.785156 315.589844 405.613281 C 315.589844 403.457031 316.824219 402.019531 318.683594 402.019531 Z M 323.347656 409.925781 "/>
<path style=" stroke:none;fill-rule:evenodd;fill:rgb(0%,0%,0%);fill-opacity:1;" d="M 325.242188 411.8125 L 325.320312 411.8125 L 325.617188 411.796875 C 326.398438 411.796875 326.804688 412.15625 326.804688 412.84375 C 326.804688 413.546875 326.367188 413.984375 325.617188 413.984375 C 324.851562 413.984375 324.476562 413.59375 324.429688 412.765625 L 323.710938 412.765625 C 323.757812 413.21875 323.835938 413.515625 323.960938 413.78125 C 324.257812 414.328125 324.820312 414.609375 325.601562 414.609375 C 326.773438 414.609375 327.523438 413.90625 327.523438 412.828125 C 327.523438 412.109375 327.242188 411.703125 326.554688 411.46875 C 327.085938 411.265625 327.351562 410.859375 327.351562 410.296875 C 327.351562 409.3125 326.710938 408.734375 325.617188 408.734375 C 324.476562 408.734375 323.867188 409.359375 323.835938 410.5625 L 324.539062 410.5625 C 324.554688 410.21875 324.585938 410.03125 324.679688 409.859375 C 324.835938 409.53125 325.195312 409.34375 325.632812 409.34375 C 326.257812 409.34375 326.632812 409.71875 326.632812 410.3125 C 326.632812 410.71875 326.492188 410.953125 326.179688 411.09375 C 325.976562 411.171875 325.726562 411.203125 325.242188 411.203125 Z M 327.925781 414.421875 "/>
<path style=" stroke:none;fill-rule:evenodd;fill:rgb(0%,0%,0%);fill-opacity:1;" d="M 335.355469 405.941406 L 335.355469 409.925781 L 336.480469 409.925781 L 336.480469 401.175781 L 335.355469 401.175781 L 335.355469 404.957031 L 330.855469 404.957031 L 330.855469 401.175781 L 329.746094 401.175781 L 329.746094 409.925781 L 330.871094 409.925781 L 330.871094 405.941406 Z M 337.410156 409.925781 "/>
<path style=" stroke:none;fill-rule:evenodd;fill:rgb(0%,0%,0%);fill-opacity:1;" d="M 258.101562 499.261719 C 257.992188 499.292969 257.945312 499.292969 257.898438 499.292969 C 257.539062 499.292969 257.351562 499.105469 257.351562 498.808594 L 257.351562 495.105469 C 257.351562 493.996094 256.539062 493.402344 254.992188 493.402344 C 254.085938 493.402344 253.320312 493.652344 252.898438 494.121094 C 252.617188 494.449219 252.492188 494.808594 252.476562 495.433594 L 253.476562 495.433594 C 253.570312 494.667969 254.023438 494.324219 254.960938 494.324219 C 255.851562 494.324219 256.351562 494.652344 256.351562 495.246094 L 256.351562 495.511719 C 256.351562 495.933594 256.101562 496.121094 255.320312 496.214844 C 253.898438 496.386719 253.679688 496.433594 253.304688 496.589844 C 252.570312 496.902344 252.195312 497.464844 252.195312 498.277344 C 252.195312 499.417969 252.992188 500.136719 254.257812 500.136719 C 255.054688 500.136719 255.679688 499.855469 256.398438 499.214844 C 256.460938 499.839844 256.773438 500.136719 257.429688 500.136719 C 257.632812 500.136719 257.789062 500.105469 258.101562 500.027344 Z M 256.351562 497.871094 C 256.351562 498.214844 256.257812 498.417969 255.960938 498.699219 C 255.554688 499.058594 255.070312 499.261719 254.476562 499.261719 C 253.695312 499.261719 253.242188 498.886719 253.242188 498.246094 C 253.242188 497.589844 253.679688 497.261719 254.757812 497.105469 C 255.804688 496.949219 256.023438 496.902344 256.351562 496.746094 Z M 263.609375 495.324219 C 263.59375 494.089844 262.78125 493.402344 261.328125 493.402344 C 259.875 493.402344 258.921875 494.152344 258.921875 495.308594 C 258.921875 496.292969 259.421875 496.761719 260.90625 497.121094 L 261.84375 497.355469 C 262.546875 497.511719 262.8125 497.777344 262.8125 498.230469 C 262.8125 498.808594 262.234375 499.214844 261.359375 499.214844 C 260.8125 499.214844 260.359375 499.058594 260.109375 498.792969 C 259.953125 498.605469 259.875 498.433594 259.828125 497.980469 L 258.765625 497.980469 C 258.8125 499.433594 259.625 500.136719 261.265625 500.136719 C 262.859375 500.136719 263.859375 499.355469 263.859375 498.136719 C 263.859375 497.199219 263.328125 496.699219 262.09375 496.386719 L 261.125 496.167969 C 260.3125 495.964844 259.96875 495.714844 259.96875 495.261719 C 259.96875 494.683594 260.484375 494.324219 261.296875 494.324219 C 262.09375 494.324219 262.53125 494.667969 262.546875 495.324219 Z M 270.757812 499.261719 C 270.648438 499.292969 270.601562 499.292969 270.554688 499.292969 C 270.195312 499.292969 270.007812 499.105469 270.007812 498.808594 L 270.007812 495.105469 C 270.007812 493.996094 269.195312 493.402344 267.648438 493.402344 C 266.742188 493.402344 265.976562 493.652344 265.554688 494.121094 C 265.273438 494.449219 265.148438 494.808594 265.132812 495.433594 L 266.132812 495.433594 C 266.226562 494.667969 266.679688 494.324219 267.617188 494.324219 C 268.507812 494.324219 269.007812 494.652344 269.007812 495.246094 L 269.007812 495.511719 C 269.007812 495.933594 268.757812 496.121094 267.976562 496.214844 C 266.554688 496.386719 266.335938 496.433594 265.960938 496.589844 C 265.226562 496.902344 264.851562 497.464844 264.851562 498.277344 C 264.851562 499.417969 265.648438 500.136719 266.914062 500.136719 C 267.710938 500.136719 268.335938 499.855469 269.054688 499.214844 C 269.117188 499.839844 269.429688 500.136719 270.085938 500.136719 C 270.289062 500.136719 270.445312 500.105469 270.757812 500.027344 Z M 269.007812 497.871094 C 269.007812 498.214844 268.914062 498.417969 268.617188 498.699219 C 268.210938 499.058594 267.726562 499.261719 267.132812 499.261719 C 266.351562 499.261719 265.898438 498.886719 265.898438 498.246094 C 265.898438 497.589844 266.335938 497.261719 267.414062 497.105469 C 268.460938 496.949219 268.679688 496.902344 269.007812 496.746094 Z M 271.859375 493.574219 L 271.859375 499.855469 L 272.859375 499.855469 L 272.859375 495.917969 C 272.859375 494.996094 273.515625 494.277344 274.328125 494.277344 C 275.078125 494.277344 275.5 494.730469 275.5 495.527344 L 275.5 499.855469 L 276.5 499.855469 L 276.5 495.917969 C 276.5 494.996094 277.15625 494.277344 277.984375 494.277344 C 278.703125 494.277344 279.140625 494.730469 279.140625 495.527344 L 279.140625 499.855469 L 280.140625 499.855469 L 280.140625 495.152344 C 280.140625 494.011719 279.5 493.402344 278.328125 493.402344 C 277.484375 493.402344 276.984375 493.652344 276.390625 494.355469 C 276.03125 493.683594 275.515625 493.402344 274.703125 493.402344 C 273.875 493.402344 273.3125 493.714844 272.78125 494.464844 L 272.78125 493.574219 Z M 287.4375 493.808594 L 287.4375 499.855469 L 288.484375 499.855469 L 288.484375 491.355469 L 287.796875 491.355469 C 287.421875 492.667969 287.1875 492.839844 285.546875 493.042969 L 285.546875 493.808594 Z M 294.398438 496.121094 L 291.539062 496.121094 L 291.539062 496.980469 L 294.398438 496.980469 Z M 299.15625 493.574219 L 299.15625 499.855469 L 300.15625 499.855469 L 300.15625 496.386719 C 300.15625 495.105469 300.828125 494.277344 301.859375 494.277344 C 302.65625 494.277344 303.15625 494.746094 303.15625 495.511719 L 303.15625 499.855469 L 304.15625 499.855469 L 304.15625 495.105469 C 304.15625 494.074219 303.375 493.402344 302.15625 493.402344 C 301.21875 493.402344 300.625 493.761719 300.078125 494.636719 L 300.078125 493.574219 Z M 311.382812 499.261719 C 311.273438 499.292969 311.226562 499.292969 311.179688 499.292969 C 310.820312 499.292969 310.632812 499.105469 310.632812 498.808594 L 310.632812 495.105469 C 310.632812 493.996094 309.820312 493.402344 308.273438 493.402344 C 307.367188 493.402344 306.601562 493.652344 306.179688 494.121094 C 305.898438 494.449219 305.773438 494.808594 305.757812 495.433594 L 306.757812 495.433594 C 306.851562 494.667969 307.304688 494.324219 308.242188 494.324219 C 309.132812 494.324219 309.632812 494.652344 309.632812 495.246094 L 309.632812 495.511719 C 309.632812 495.933594 309.382812 496.121094 308.601562 496.214844 C 307.179688 496.386719 306.960938 496.433594 306.585938 496.589844 C 305.851562 496.902344 305.476562 497.464844 305.476562 498.277344 C 305.476562 499.417969 306.273438 500.136719 307.539062 500.136719 C 308.335938 500.136719 308.960938 499.855469 309.679688 499.214844 C 309.742188 499.839844 310.054688 500.136719 310.710938 500.136719 C 310.914062 500.136719 311.070312 500.105469 311.382812 500.027344 Z M 309.632812 497.871094 C 309.632812 498.214844 309.539062 498.417969 309.242188 498.699219 C 308.835938 499.058594 308.351562 499.261719 307.757812 499.261719 C 306.976562 499.261719 306.523438 498.886719 306.523438 498.246094 C 306.523438 497.589844 306.960938 497.261719 308.039062 497.105469 C 309.085938 496.949219 309.304688 496.902344 309.632812 496.746094 Z M 314.734375 493.574219 L 313.6875 493.574219 L 313.6875 492.589844 C 313.6875 492.167969 313.921875 491.964844 314.390625 491.964844 C 314.46875 491.964844 314.5 491.964844 314.734375 491.964844 L 314.734375 491.136719 C 314.5 491.089844 314.375 491.089844 314.171875 491.089844 C 313.25 491.089844 312.6875 491.605469 312.6875 492.511719 L 312.6875 493.574219 L 311.859375 493.574219 L 311.859375 494.386719 L 312.6875 494.386719 L 312.6875 499.855469 L 313.6875 499.855469 L 313.6875 494.386719 L 314.734375 494.386719 Z M 318.019531 493.574219 L 316.988281 493.574219 L 316.988281 491.855469 L 315.988281 491.855469 L 315.988281 493.574219 L 315.144531 493.574219 L 315.144531 494.386719 L 315.988281 494.386719 L 315.988281 499.136719 C 315.988281 499.777344 316.425781 500.136719 317.207031 500.136719 C 317.441406 500.136719 317.675781 500.105469 318.019531 500.042969 L 318.019531 499.214844 C 317.878906 499.246094 317.722656 499.261719 317.535156 499.261719 C 317.113281 499.261719 316.988281 499.136719 316.988281 498.699219 L 316.988281 494.386719 L 318.019531 494.386719 Z M 324.710938 499.261719 C 324.601562 499.292969 324.554688 499.292969 324.507812 499.292969 C 324.148438 499.292969 323.960938 499.105469 323.960938 498.808594 L 323.960938 495.105469 C 323.960938 493.996094 323.148438 493.402344 321.601562 493.402344 C 320.695312 493.402344 319.929688 493.652344 319.507812 494.121094 C 319.226562 494.449219 319.101562 494.808594 319.085938 495.433594 L 320.085938 495.433594 C 320.179688 494.667969 320.632812 494.324219 321.570312 494.324219 C 322.460938 494.324219 322.960938 494.652344 322.960938 495.246094 L 322.960938 495.511719 C 322.960938 495.933594 322.710938 496.121094 321.929688 496.214844 C 320.507812 496.386719 320.289062 496.433594 319.914062 496.589844 C 319.179688 496.902344 318.804688 497.464844 318.804688 498.277344 C 318.804688 499.417969 319.601562 500.136719 320.867188 500.136719 C 321.664062 500.136719 322.289062 499.855469 323.007812 499.214844 C 323.070312 499.839844 323.382812 500.136719 324.039062 500.136719 C 324.242188 500.136719 324.398438 500.105469 324.710938 500.027344 Z M 322.960938 497.871094 C 322.960938 498.214844 322.867188 498.417969 322.570312 498.699219 C 322.164062 499.058594 321.679688 499.261719 321.085938 499.261719 C 320.304688 499.261719 319.851562 498.886719 319.851562 498.246094 C 319.851562 497.589844 320.289062 497.261719 321.367188 497.105469 C 322.414062 496.949219 322.632812 496.902344 322.960938 496.746094 Z M 326.796875 491.121094 L 325.78125 491.121094 L 325.78125 499.855469 L 326.796875 499.855469 Z M 333.769531 497.058594 C 333.769531 496.089844 333.707031 495.511719 333.519531 495.042969 C 333.113281 494.011719 332.160156 493.402344 330.988281 493.402344 C 329.238281 493.402344 328.113281 494.730469 328.113281 496.792969 C 328.113281 498.855469 329.191406 500.136719 330.957031 500.136719 C 332.394531 500.136719 333.394531 499.308594 333.644531 497.949219 L 332.644531 497.949219 C 332.363281 498.777344 331.800781 499.214844 331.003906 499.214844 C 330.363281 499.214844 329.816406 498.917969 329.488281 498.386719 C 329.253906 498.027344 329.160156 497.667969 329.144531 497.058594 Z M 329.175781 496.230469 C 329.253906 495.074219 329.972656 494.324219 330.972656 494.324219 C 331.957031 494.324219 332.707031 495.136719 332.707031 496.167969 C 332.707031 496.183594 332.707031 496.214844 332.691406 496.230469 Z M 335.136719 493.574219 L 335.136719 499.855469 L 336.136719 499.855469 L 336.136719 496.386719 C 336.136719 495.105469 336.808594 494.277344 337.839844 494.277344 C 338.636719 494.277344 339.136719 494.746094 339.136719 495.511719 L 339.136719 499.855469 L 340.136719 499.855469 L 340.136719 495.105469 C 340.136719 494.074219 339.355469 493.402344 338.136719 493.402344 C 337.199219 493.402344 336.605469 493.761719 336.058594 494.636719 L 336.058594 493.574219 Z M 347.359375 499.261719 C 347.25 499.292969 347.203125 499.292969 347.15625 499.292969 C 346.796875 499.292969 346.609375 499.105469 346.609375 498.808594 L 346.609375 495.105469 C 346.609375 493.996094 345.796875 493.402344 344.25 493.402344 C 343.34375 493.402344 342.578125 493.652344 342.15625 494.121094 C 341.875 494.449219 341.75 494.808594 341.734375 495.433594 L 342.734375 495.433594 C 342.828125 494.667969 343.28125 494.324219 344.21875 494.324219 C 345.109375 494.324219 345.609375 494.652344 345.609375 495.246094 L 345.609375 495.511719 C 345.609375 495.933594 345.359375 496.121094 344.578125 496.214844 C 343.15625 496.386719 342.9375 496.433594 342.5625 496.589844 C 341.828125 496.902344 341.453125 497.464844 341.453125 498.277344 C 341.453125 499.417969 342.25 500.136719 343.515625 500.136719 C 344.3125 500.136719 344.9375 499.855469 345.65625 499.214844 C 345.71875 499.839844 346.03125 500.136719 346.6875 500.136719 C 346.890625 500.136719 347.046875 500.105469 347.359375 500.027344 Z M 345.609375 497.871094 C 345.609375 498.214844 345.515625 498.417969 345.21875 498.699219 C 344.8125 499.058594 344.328125 499.261719 343.734375 499.261719 C 342.953125 499.261719 342.5 498.886719 342.5 498.246094 C 342.5 497.589844 342.9375 497.261719 344.015625 497.105469 C 345.0625 496.949219 345.28125 496.902344 345.609375 496.746094 Z M 352.867188 495.324219 C 352.851562 494.089844 352.039062 493.402344 350.585938 493.402344 C 349.132812 493.402344 348.179688 494.152344 348.179688 495.308594 C 348.179688 496.292969 348.679688 496.761719 350.164062 497.121094 L 351.101562 497.355469 C 351.804688 497.511719 352.070312 497.777344 352.070312 498.230469 C 352.070312 498.808594 351.492188 499.214844 350.617188 499.214844 C 350.070312 499.214844 349.617188 499.058594 349.367188 498.792969 C 349.210938 498.605469 349.132812 498.433594 349.085938 497.980469 L 348.023438 497.980469 C 348.070312 499.433594 348.882812 500.136719 350.523438 500.136719 C 352.117188 500.136719 353.117188 499.355469 353.117188 498.136719 C 353.117188 497.199219 352.585938 496.699219 351.351562 496.386719 L 350.382812 496.167969 C 349.570312 495.964844 349.226562 495.714844 349.226562 495.261719 C 349.226562 494.683594 349.742188 494.324219 350.554688 494.324219 C 351.351562 494.324219 351.789062 494.667969 351.804688 495.324219 Z M 359.390625 499.855469 L 359.390625 493.574219 L 358.390625 493.574219 L 358.390625 497.136719 C 358.390625 498.417969 357.71875 499.261719 356.671875 499.261719 C 355.890625 499.261719 355.390625 498.777344 355.390625 498.027344 L 355.390625 493.574219 L 354.390625 493.574219 L 354.390625 498.417969 C 354.390625 499.464844 355.171875 500.136719 356.390625 500.136719 C 357.3125 500.136719 357.90625 499.808594 358.484375 498.980469 L 358.484375 499.855469 Z M 362.101562 491.121094 L 361.085938 491.121094 L 361.085938 499.855469 L 362.101562 499.855469 Z M 366.027344 493.574219 L 364.980469 493.574219 L 364.980469 492.589844 C 364.980469 492.167969 365.214844 491.964844 365.683594 491.964844 C 365.761719 491.964844 365.792969 491.964844 366.027344 491.964844 L 366.027344 491.136719 C 365.792969 491.089844 365.667969 491.089844 365.464844 491.089844 C 364.542969 491.089844 363.980469 491.605469 363.980469 492.511719 L 363.980469 493.574219 L 363.152344 493.574219 L 363.152344 494.386719 L 363.980469 494.386719 L 363.980469 499.855469 L 364.980469 499.855469 L 364.980469 494.386719 L 366.027344 494.386719 Z M 369.53125 493.402344 C 367.765625 493.402344 366.703125 494.652344 366.703125 496.761719 C 366.703125 498.871094 367.75 500.136719 369.53125 500.136719 C 371.296875 500.136719 372.375 498.871094 372.375 496.808594 C 372.375 494.636719 371.328125 493.402344 369.53125 493.402344 Z M 369.53125 494.324219 C 370.65625 494.324219 371.328125 495.246094 371.328125 496.792969 C 371.328125 498.277344 370.640625 499.214844 369.53125 499.214844 C 368.421875 499.214844 367.734375 498.292969 367.734375 496.761719 C 367.734375 495.246094 368.421875 494.324219 369.53125 494.324219 Z M 373.773438 493.574219 L 373.773438 499.855469 L 374.773438 499.855469 L 374.773438 496.386719 C 374.773438 495.105469 375.445312 494.277344 376.476562 494.277344 C 377.273438 494.277344 377.773438 494.746094 377.773438 495.511719 L 377.773438 499.855469 L 378.773438 499.855469 L 378.773438 495.105469 C 378.773438 494.074219 377.992188 493.402344 376.773438 493.402344 C 375.835938 493.402344 375.242188 493.761719 374.695312 494.636719 L 374.695312 493.574219 Z M 386 499.261719 C 385.890625 499.292969 385.84375 499.292969 385.796875 499.292969 C 385.4375 499.292969 385.25 499.105469 385.25 498.808594 L 385.25 495.105469 C 385.25 493.996094 384.4375 493.402344 382.890625 493.402344 C 381.984375 493.402344 381.21875 493.652344 380.796875 494.121094 C 380.515625 494.449219 380.390625 494.808594 380.375 495.433594 L 381.375 495.433594 C 381.46875 494.667969 381.921875 494.324219 382.859375 494.324219 C 383.75 494.324219 384.25 494.652344 384.25 495.246094 L 384.25 495.511719 C 384.25 495.933594 384 496.121094 383.21875 496.214844 C 381.796875 496.386719 381.578125 496.433594 381.203125 496.589844 C 380.46875 496.902344 380.09375 497.464844 380.09375 498.277344 C 380.09375 499.417969 380.890625 500.136719 382.15625 500.136719 C 382.953125 500.136719 383.578125 499.855469 384.296875 499.214844 C 384.359375 499.839844 384.671875 500.136719 385.328125 500.136719 C 385.53125 500.136719 385.6875 500.105469 386 500.027344 Z M 384.25 497.871094 C 384.25 498.214844 384.15625 498.417969 383.859375 498.699219 C 383.453125 499.058594 382.96875 499.261719 382.375 499.261719 C 381.59375 499.261719 381.140625 498.886719 381.140625 498.246094 C 381.140625 497.589844 381.578125 497.261719 382.65625 497.105469 C 383.703125 496.949219 383.921875 496.902344 384.25 496.746094 Z M 389.300781 493.574219 L 388.269531 493.574219 L 388.269531 491.855469 L 387.269531 491.855469 L 387.269531 493.574219 L 386.425781 493.574219 L 386.425781 494.386719 L 387.269531 494.386719 L 387.269531 499.136719 C 387.269531 499.777344 387.707031 500.136719 388.488281 500.136719 C 388.722656 500.136719 388.957031 500.105469 389.300781 500.042969 L 389.300781 499.214844 C 389.160156 499.246094 389.003906 499.261719 388.816406 499.261719 C 388.394531 499.261719 388.269531 499.136719 388.269531 498.699219 L 388.269531 494.386719 L 389.300781 494.386719 Z M 389.585938 499.855469 "/>
<path style=" stroke:none;fill-rule:evenodd;fill:rgb(0%,0%,0%);fill-opacity:1;" d="M 257.355469 572.71875 C 257.246094 572.734375 257.199219 572.734375 257.152344 572.734375 C 256.792969 572.734375 256.605469 572.5625 256.605469 572.25 L 256.605469 568.5625 C 256.605469 567.453125 255.792969 566.859375 254.246094 566.859375 C 253.339844 566.859375 252.589844 567.109375 252.167969 567.578125 C 251.886719 567.90625 251.761719 568.265625 251.746094 568.890625 L 252.746094 568.890625 C 252.824219 568.125 253.277344 567.78125 254.214844 567.78125 C 255.105469 567.78125 255.621094 568.109375 255.621094 568.703125 L 255.621094 568.96875 C 255.621094 569.390625 255.371094 569.5625 254.574219 569.65625 C 253.167969 569.84375 252.949219 569.890625 252.574219 570.046875 C 251.839844 570.34375 251.464844 570.90625 251.464844 571.71875 C 251.464844 572.859375 252.261719 573.578125 253.527344 573.578125 C 254.308594 573.578125 254.949219 573.296875 255.652344 572.65625 C 255.714844 573.28125 256.027344 573.578125 256.683594 573.578125 C 256.886719 573.578125 257.042969 573.546875 257.355469 573.46875 Z M 255.621094 571.328125 C 255.621094 571.65625 255.511719 571.859375 255.214844 572.140625 C 254.808594 572.515625 254.324219 572.703125 253.730469 572.703125 C 252.964844 572.703125 252.511719 572.328125 252.511719 571.6875 C 252.511719 571.03125 252.949219 570.703125 254.011719 570.546875 C 255.058594 570.40625 255.277344 570.359375 255.621094 570.203125 Z M 262.84375 568.78125 C 262.828125 567.546875 262.015625 566.859375 260.578125 566.859375 C 259.109375 566.859375 258.171875 567.609375 258.171875 568.765625 C 258.171875 569.75 258.671875 570.21875 260.15625 570.578125 L 261.09375 570.796875 C 261.78125 570.96875 262.0625 571.21875 262.0625 571.671875 C 262.0625 572.25 261.46875 572.65625 260.59375 572.65625 C 260.0625 572.65625 259.609375 572.5 259.359375 572.234375 C 259.203125 572.046875 259.125 571.875 259.0625 571.4375 L 258.015625 571.4375 C 258.0625 572.875 258.875 573.578125 260.515625 573.578125 C 262.09375 573.578125 263.09375 572.796875 263.09375 571.59375 C 263.09375 570.65625 262.5625 570.140625 261.328125 569.84375 L 260.375 569.609375 C 259.5625 569.421875 259.21875 569.15625 259.21875 568.71875 C 259.21875 568.140625 259.71875 567.78125 260.53125 567.78125 C 261.34375 567.78125 261.765625 568.125 261.796875 568.78125 Z M 269.976562 572.71875 C 269.867188 572.734375 269.820312 572.734375 269.773438 572.734375 C 269.414062 572.734375 269.226562 572.5625 269.226562 572.25 L 269.226562 568.5625 C 269.226562 567.453125 268.414062 566.859375 266.867188 566.859375 C 265.960938 566.859375 265.210938 567.109375 264.789062 567.578125 C 264.507812 567.90625 264.382812 568.265625 264.367188 568.890625 L 265.367188 568.890625 C 265.445312 568.125 265.898438 567.78125 266.835938 567.78125 C 267.726562 567.78125 268.242188 568.109375 268.242188 568.703125 L 268.242188 568.96875 C 268.242188 569.390625 267.992188 569.5625 267.195312 569.65625 C 265.789062 569.84375 265.570312 569.890625 265.195312 570.046875 C 264.460938 570.34375 264.085938 570.90625 264.085938 571.71875 C 264.085938 572.859375 264.882812 573.578125 266.148438 573.578125 C 266.929688 573.578125 267.570312 573.296875 268.273438 572.65625 C 268.335938 573.28125 268.648438 573.578125 269.304688 573.578125 C 269.507812 573.578125 269.664062 573.546875 269.976562 573.46875 Z M 268.242188 571.328125 C 268.242188 571.65625 268.132812 571.859375 267.835938 572.140625 C 267.429688 572.515625 266.945312 572.703125 266.351562 572.703125 C 265.585938 572.703125 265.132812 572.328125 265.132812 571.6875 C 265.132812 571.03125 265.570312 570.703125 266.632812 570.546875 C 267.679688 570.40625 267.898438 570.359375 268.242188 570.203125 Z M 271.078125 567.03125 L 271.078125 573.296875 L 272.078125 573.296875 L 272.078125 569.359375 C 272.078125 568.453125 272.734375 567.734375 273.546875 567.734375 C 274.28125 567.734375 274.703125 568.1875 274.703125 568.984375 L 274.703125 573.296875 L 275.703125 573.296875 L 275.703125 569.359375 C 275.703125 568.453125 276.359375 567.734375 277.171875 567.734375 C 277.90625 567.734375 278.34375 568.1875 278.34375 568.984375 L 278.34375 573.296875 L 279.34375 573.296875 L 279.34375 568.59375 C 279.34375 567.46875 278.703125 566.859375 277.53125 566.859375 C 276.6875 566.859375 276.1875 567.109375 275.59375 567.8125 C 275.234375 567.140625 274.734375 566.859375 273.921875 566.859375 C 273.078125 566.859375 272.53125 567.171875 271.984375 567.921875 L 271.984375 567.03125 Z M 289.558594 572.25 L 285.105469 572.25 C 285.214844 571.5625 285.589844 571.125 286.636719 570.515625 L 287.824219 569.859375 C 289.011719 569.21875 289.621094 568.34375 289.621094 567.3125 C 289.621094 566.609375 289.339844 565.953125 288.824219 565.484375 C 288.324219 565.03125 287.714844 564.828125 286.902344 564.828125 C 285.824219 564.828125 285.027344 565.203125 284.558594 565.921875 C 284.261719 566.375 284.136719 566.90625 284.105469 567.765625 L 285.167969 567.765625 C 285.199219 567.1875 285.261719 566.84375 285.417969 566.5625 C 285.683594 566.046875 286.230469 565.75 286.871094 565.75 C 287.824219 565.75 288.542969 566.421875 288.542969 567.328125 C 288.542969 568 288.152344 568.578125 287.402344 569 L 286.292969 569.625 C 284.527344 570.625 284.011719 571.4375 283.917969 573.296875 L 289.558594 573.296875 Z M 296.871094 569.5625 L 294.027344 569.5625 L 294.027344 570.421875 L 296.871094 570.421875 Z M 301.628906 567.03125 L 301.628906 573.296875 L 302.628906 573.296875 L 302.628906 569.84375 C 302.628906 568.5625 303.300781 567.734375 304.316406 567.734375 C 305.113281 567.734375 305.613281 568.203125 305.613281 568.953125 L 305.613281 573.296875 L 306.613281 573.296875 L 306.613281 568.5625 C 306.613281 567.53125 305.832031 566.859375 304.628906 566.859375 C 303.691406 566.859375 303.097656 567.21875 302.535156 568.078125 L 302.535156 567.03125 Z M 313.820312 572.71875 C 313.710938 572.734375 313.664062 572.734375 313.617188 572.734375 C 313.257812 572.734375 313.070312 572.5625 313.070312 572.25 L 313.070312 568.5625 C 313.070312 567.453125 312.257812 566.859375 310.710938 566.859375 C 309.804688 566.859375 309.054688 567.109375 308.632812 567.578125 C 308.351562 567.90625 308.226562 568.265625 308.210938 568.890625 L 309.210938 568.890625 C 309.289062 568.125 309.742188 567.78125 310.679688 567.78125 C 311.570312 567.78125 312.085938 568.109375 312.085938 568.703125 L 312.085938 568.96875 C 312.085938 569.390625 311.835938 569.5625 311.039062 569.65625 C 309.632812 569.84375 309.414062 569.890625 309.039062 570.046875 C 308.304688 570.34375 307.929688 570.90625 307.929688 571.71875 C 307.929688 572.859375 308.726562 573.578125 309.992188 573.578125 C 310.773438 573.578125 311.414062 573.296875 312.117188 572.65625 C 312.179688 573.28125 312.492188 573.578125 313.148438 573.578125 C 313.351562 573.578125 313.507812 573.546875 313.820312 573.46875 Z M 312.085938 571.328125 C 312.085938 571.65625 311.976562 571.859375 311.679688 572.140625 C 311.273438 572.515625 310.789062 572.703125 310.195312 572.703125 C 309.429688 572.703125 308.976562 572.328125 308.976562 571.6875 C 308.976562 571.03125 309.414062 570.703125 310.476562 570.546875 C 311.523438 570.40625 311.742188 570.359375 312.085938 570.203125 Z M 317.15625 567.03125 L 316.125 567.03125 L 316.125 566.046875 C 316.125 565.640625 316.359375 565.421875 316.8125 565.421875 C 316.90625 565.421875 316.9375 565.421875 317.15625 565.4375 L 317.15625 564.609375 C 316.9375 564.5625 316.796875 564.546875 316.59375 564.546875 C 315.6875 564.546875 315.125 565.078125 315.125 565.96875 L 315.125 567.03125 L 314.296875 567.03125 L 314.296875 567.84375 L 315.125 567.84375 L 315.125 573.296875 L 316.125 573.296875 L 316.125 567.84375 L 317.15625 567.84375 Z M 320.429688 567.03125 L 319.414062 567.03125 L 319.414062 565.3125 L 318.414062 565.3125 L 318.414062 567.03125 L 317.570312 567.03125 L 317.570312 567.84375 L 318.414062 567.84375 L 318.414062 572.578125 C 318.414062 573.21875 318.851562 573.578125 319.617188 573.578125 C 319.867188 573.578125 320.101562 573.546875 320.429688 573.484375 L 320.429688 572.65625 C 320.304688 572.6875 320.148438 572.703125 319.960938 572.703125 C 319.523438 572.703125 319.414062 572.578125 319.414062 572.140625 L 319.414062 567.84375 L 320.429688 567.84375 Z M 327.113281 572.71875 C 327.003906 572.734375 326.957031 572.734375 326.910156 572.734375 C 326.550781 572.734375 326.363281 572.5625 326.363281 572.25 L 326.363281 568.5625 C 326.363281 567.453125 325.550781 566.859375 324.003906 566.859375 C 323.097656 566.859375 322.347656 567.109375 321.925781 567.578125 C 321.644531 567.90625 321.519531 568.265625 321.503906 568.890625 L 322.503906 568.890625 C 322.582031 568.125 323.035156 567.78125 323.972656 567.78125 C 324.863281 567.78125 325.378906 568.109375 325.378906 568.703125 L 325.378906 568.96875 C 325.378906 569.390625 325.128906 569.5625 324.332031 569.65625 C 322.925781 569.84375 322.707031 569.890625 322.332031 570.046875 C 321.597656 570.34375 321.222656 570.90625 321.222656 571.71875 C 321.222656 572.859375 322.019531 573.578125 323.285156 573.578125 C 324.066406 573.578125 324.707031 573.296875 325.410156 572.65625 C 325.472656 573.28125 325.785156 573.578125 326.441406 573.578125 C 326.644531 573.578125 326.800781 573.546875 327.113281 573.46875 Z M 325.378906 571.328125 C 325.378906 571.65625 325.269531 571.859375 324.972656 572.140625 C 324.566406 572.515625 324.082031 572.703125 323.488281 572.703125 C 322.722656 572.703125 322.269531 572.328125 322.269531 571.6875 C 322.269531 571.03125 322.707031 570.703125 323.769531 570.546875 C 324.816406 570.40625 325.035156 570.359375 325.378906 570.203125 Z M 329.183594 564.578125 L 328.183594 564.578125 L 328.183594 573.296875 L 329.183594 573.296875 Z M 336.148438 570.5 C 336.148438 569.546875 336.085938 568.96875 335.898438 568.5 C 335.492188 567.46875 334.539062 566.859375 333.367188 566.859375 C 331.632812 566.859375 330.507812 568.1875 330.507812 570.25 C 330.507812 572.3125 331.585938 573.578125 333.351562 573.578125 C 334.773438 573.578125 335.773438 572.765625 336.023438 571.390625 L 335.023438 571.390625 C 334.742188 572.21875 334.179688 572.65625 333.382812 572.65625 C 332.742188 572.65625 332.210938 572.359375 331.882812 571.84375 C 331.632812 571.484375 331.554688 571.125 331.539062 570.5 Z M 331.570312 569.6875 C 331.648438 568.53125 332.351562 567.78125 333.351562 567.78125 C 334.335938 567.78125 335.085938 568.59375 335.085938 569.609375 C 335.085938 569.640625 335.085938 569.65625 335.085938 569.6875 Z M 337.511719 567.03125 L 337.511719 573.296875 L 338.511719 573.296875 L 338.511719 569.84375 C 338.511719 568.5625 339.183594 567.734375 340.199219 567.734375 C 340.996094 567.734375 341.496094 568.203125 341.496094 568.953125 L 341.496094 573.296875 L 342.496094 573.296875 L 342.496094 568.5625 C 342.496094 567.53125 341.714844 566.859375 340.511719 566.859375 C 339.574219 566.859375 338.980469 567.21875 338.417969 568.078125 L 338.417969 567.03125 Z M 349.707031 572.71875 C 349.597656 572.734375 349.550781 572.734375 349.503906 572.734375 C 349.144531 572.734375 348.957031 572.5625 348.957031 572.25 L 348.957031 568.5625 C 348.957031 567.453125 348.144531 566.859375 346.597656 566.859375 C 345.691406 566.859375 344.941406 567.109375 344.519531 567.578125 C 344.238281 567.90625 344.113281 568.265625 344.097656 568.890625 L 345.097656 568.890625 C 345.175781 568.125 345.628906 567.78125 346.566406 567.78125 C 347.457031 567.78125 347.972656 568.109375 347.972656 568.703125 L 347.972656 568.96875 C 347.972656 569.390625 347.722656 569.5625 346.925781 569.65625 C 345.519531 569.84375 345.300781 569.890625 344.925781 570.046875 C 344.191406 570.34375 343.816406 570.90625 343.816406 571.71875 C 343.816406 572.859375 344.613281 573.578125 345.878906 573.578125 C 346.660156 573.578125 347.300781 573.296875 348.003906 572.65625 C 348.066406 573.28125 348.378906 573.578125 349.035156 573.578125 C 349.238281 573.578125 349.394531 573.546875 349.707031 573.46875 Z M 347.972656 571.328125 C 347.972656 571.65625 347.863281 571.859375 347.566406 572.140625 C 347.160156 572.515625 346.675781 572.703125 346.082031 572.703125 C 345.316406 572.703125 344.863281 572.328125 344.863281 571.6875 C 344.863281 571.03125 345.300781 570.703125 346.363281 570.546875 C 347.410156 570.40625 347.628906 570.359375 347.972656 570.203125 Z M 355.195312 568.78125 C 355.179688 567.546875 354.367188 566.859375 352.929688 566.859375 C 351.460938 566.859375 350.523438 567.609375 350.523438 568.765625 C 350.523438 569.75 351.023438 570.21875 352.507812 570.578125 L 353.445312 570.796875 C 354.132812 570.96875 354.414062 571.21875 354.414062 571.671875 C 354.414062 572.25 353.820312 572.65625 352.945312 572.65625 C 352.414062 572.65625 351.960938 572.5 351.710938 572.234375 C 351.554688 572.046875 351.476562 571.875 351.414062 571.4375 L 350.367188 571.4375 C 350.414062 572.875 351.226562 573.578125 352.867188 573.578125 C 354.445312 573.578125 355.445312 572.796875 355.445312 571.59375 C 355.445312 570.65625 354.914062 570.140625 353.679688 569.84375 L 352.726562 569.609375 C 351.914062 569.421875 351.570312 569.15625 351.570312 568.71875 C 351.570312 568.140625 352.070312 567.78125 352.882812 567.78125 C 353.695312 567.78125 354.117188 568.125 354.148438 568.78125 Z M 361.703125 573.296875 L 361.703125 567.03125 L 360.703125 567.03125 L 360.703125 570.578125 C 360.703125 571.859375 360.03125 572.703125 359 572.703125 C 358.203125 572.703125 357.703125 572.21875 357.703125 571.46875 L 357.703125 567.03125 L 356.71875 567.03125 L 356.71875 571.859375 C 356.71875 572.90625 357.484375 573.578125 358.703125 573.578125 C 359.625 573.578125 360.21875 573.25 360.796875 572.421875 L 360.796875 573.296875 Z M 364.394531 564.578125 L 363.394531 564.578125 L 363.394531 573.296875 L 364.394531 573.296875 Z M 368.316406 567.03125 L 367.285156 567.03125 L 367.285156 566.046875 C 367.285156 565.640625 367.519531 565.421875 367.972656 565.421875 C 368.066406 565.421875 368.097656 565.421875 368.316406 565.4375 L 368.316406 564.609375 C 368.097656 564.5625 367.957031 564.546875 367.753906 564.546875 C 366.847656 564.546875 366.285156 565.078125 366.285156 565.96875 L 366.285156 567.03125 L 365.457031 567.03125 L 365.457031 567.84375 L 366.285156 567.84375 L 366.285156 573.296875 L 367.285156 573.296875 L 367.285156 567.84375 L 368.316406 567.84375 Z M 371.808594 566.859375 C 370.058594 566.859375 368.996094 568.109375 368.996094 570.21875 C 368.996094 572.3125 370.042969 573.578125 371.824219 573.578125 C 373.574219 573.578125 374.652344 572.3125 374.652344 570.265625 C 374.652344 568.09375 373.621094 566.859375 371.808594 566.859375 Z M 371.824219 567.78125 C 372.949219 567.78125 373.621094 568.6875 373.621094 570.25 C 373.621094 571.71875 372.917969 572.65625 371.824219 572.65625 C 370.714844 572.65625 370.027344 571.734375 370.027344 570.21875 C 370.027344 568.703125 370.714844 567.78125 371.824219 567.78125 Z M 376.050781 567.03125 L 376.050781 573.296875 L 377.050781 573.296875 L 377.050781 569.84375 C 377.050781 568.5625 377.722656 567.734375 378.738281 567.734375 C 379.535156 567.734375 380.035156 568.203125 380.035156 568.953125 L 380.035156 573.296875 L 381.035156 573.296875 L 381.035156 568.5625 C 381.035156 567.53125 380.253906 566.859375 379.050781 566.859375 C 378.113281 566.859375 377.519531 567.21875 376.957031 568.078125 L 376.957031 567.03125 Z M 388.242188 572.71875 C 388.132812 572.734375 388.085938 572.734375 388.039062 572.734375 C 387.679688 572.734375 387.492188 572.5625 387.492188 572.25 L 387.492188 568.5625 C 387.492188 567.453125 386.679688 566.859375 385.132812 566.859375 C 384.226562 566.859375 383.476562 567.109375 383.054688 567.578125 C 382.773438 567.90625 382.648438 568.265625 382.632812 568.890625 L 383.632812 568.890625 C 383.710938 568.125 384.164062 567.78125 385.101562 567.78125 C 385.992188 567.78125 386.507812 568.109375 386.507812 568.703125 L 386.507812 568.96875 C 386.507812 569.390625 386.257812 569.5625 385.460938 569.65625 C 384.054688 569.84375 383.835938 569.890625 383.460938 570.046875 C 382.726562 570.34375 382.351562 570.90625 382.351562 571.71875 C 382.351562 572.859375 383.148438 573.578125 384.414062 573.578125 C 385.195312 573.578125 385.835938 573.296875 386.539062 572.65625 C 386.601562 573.28125 386.914062 573.578125 387.570312 573.578125 C 387.773438 573.578125 387.929688 573.546875 388.242188 573.46875 Z M 386.507812 571.328125 C 386.507812 571.65625 386.398438 571.859375 386.101562 572.140625 C 385.695312 572.515625 385.210938 572.703125 384.617188 572.703125 C 383.851562 572.703125 383.398438 572.328125 383.398438 571.6875 C 383.398438 571.03125 383.835938 570.703125 384.898438 570.546875 C 385.945312 570.40625 386.164062 570.359375 386.507812 570.203125 Z M 391.527344 567.03125 L 390.511719 567.03125 L 390.511719 565.3125 L 389.511719 565.3125 L 389.511719 567.03125 L 388.667969 567.03125 L 388.667969 567.84375 L 389.511719 567.84375 L 389.511719 572.578125 C 389.511719 573.21875 389.949219 573.578125 390.714844 573.578125 C 390.964844 573.578125 391.199219 573.546875 391.527344 573.484375 L 391.527344 572.65625 C 391.402344 572.6875 391.246094 572.703125 391.058594 572.703125 C 390.621094 572.703125 390.511719 572.578125 390.511719 572.140625 L 390.511719 567.84375 L 391.527344 567.84375 Z M 391.820312 573.296875 "/>
<path style="fill:none;stroke-width:0.749409;stroke-linecap:butt;stroke-linejoin:round;stroke:rgb(0%,0%,0%);stroke-opacity:1;stroke-miterlimit:10;" d="M 447.398438 62.199219 L 442.902344 61.453125 L 430.160156 66.699219 L 421.917969 74.941406 L 418.917969 80.9375 L 413.675781 96.671875 L 411.425781 108.664062 L 412.175781 121.40625 L 418.171875 140.140625 L 426.414062 158.875 L 430.910156 179.109375 L 433.160156 194.097656 L 432.410156 209.085938 L 427.914062 218.828125 L 426.414062 227.070312 L 423.417969 238.3125 L 419.667969 254.050781 L 422.667969 272.035156 L 431.660156 280.277344 L 441.402344 283.277344 L 454.890625 284.777344 L 463.136719 284.777344 L 470.628906 281.027344 L 484.867188 272.035156 L 503.601562 262.292969 L 520.089844 251.800781 L 534.328125 233.816406 L 545.570312 215.082031 L 549.316406 191.847656 L 553.0625 158.875 L 553.8125 119.15625 L 546.320312 88.429688 L 535.828125 73.441406 L 526.085938 65.199219 L 513.34375 59.953125 L 499.105469 53.207031 L 481.871094 49.460938 L 463.136719 51.710938 L 451.894531 52.457031 L 446.648438 58.453125 L 408.429688 32.222656 "/>
<path style="fill:none;stroke-width:0.749409;stroke-linecap:butt;stroke-linejoin:round;stroke:rgb(0%,0%,0%);stroke-opacity:1;stroke-miterlimit:10;" d="M 447.398438 58.453125 L 445.898438 56.957031 L 443.652344 54.707031 L 437.65625 48.710938 L 430.910156 40.46875 L 429.410156 36.722656 L 430.910156 25.480469 L 431.660156 22.480469 L 433.90625 14.238281 L 436.15625 11.242188 L 436.15625 10.492188 L 440.652344 10.492188 L 447.398438 14.238281 L 455.640625 20.234375 L 459.386719 25.480469 L 460.886719 35.222656 L 458.636719 44.214844 L 451.894531 53.207031 L 447.398438 58.453125 L 448.148438 59.203125 L 443.652344 47.210938 L 442.902344 39.71875 L 442.902344 37.46875 L 442.152344 33.722656 L 441.402344 26.230469 L 439.902344 23.230469 L 439.902344 17.984375 L 436.90625 11.242188 L 440.652344 26.230469 "/>
<path style="fill:none;stroke-width:0.749409;stroke-linecap:butt;stroke-linejoin:round;stroke:rgb(0%,0%,0%);stroke-opacity:1;stroke-miterlimit:10;" d="M 442.152344 35.222656 L 451.894531 25.480469 L 451.144531 26.230469 "/>
<path style="fill:none;stroke-width:0.749409;stroke-linecap:butt;stroke-linejoin:round;stroke:rgb(0%,0%,0%);stroke-opacity:1;stroke-miterlimit:10;" d="M 439.902344 26.230469 L 431.660156 23.980469 L 429.410156 23.230469 "/>
<path style="fill:none;stroke-width:0.749409;stroke-linecap:butt;stroke-linejoin:round;stroke:rgb(0%,0%,0%);stroke-opacity:1;stroke-miterlimit:10;" d="M 442.152344 39.71875 L 429.410156 34.472656 "/>
<path style="fill:none;stroke-width:0.749409;stroke-linecap:butt;stroke-linejoin:round;stroke:rgb(0%,0%,0%);stroke-opacity:1;stroke-miterlimit:10;" d="M 444.398438 47.210938 L 459.386719 35.972656 "/>
<path style="fill:none;stroke-width:0.749409;stroke-linecap:butt;stroke-linejoin:round;stroke:rgb(0%,0%,0%);stroke-opacity:1;stroke-miterlimit:10;" d="M 445.148438 63.699219 L 448.148438 62.199219 L 450.394531 58.453125 L 445.898438 56.207031 "/>
</g>
</svg>
